<svg aria-roledescription="er" viewBox="0 0 1326.1226806640625 452" style="max-width: 1326.12px; background-color: white;" xmlns:xlink="http://www.w3.org/1999/xlink" xmlns="http://www.w3.org/2000/svg" width="100%" id="mermaid-0"><style>#mermaid-0{font-family:"trebuchet ms",verdana,arial,sans-serif;font-size:16px;fill:#000000;}#mermaid-0 .error-icon{fill:#552222;}#mermaid-0 .error-text{fill:#552222;stroke:#552222;}#mermaid-0 .edge-thickness-normal{stroke-width:2px;}#mermaid-0 .edge-thickness-thick{stroke-width:3.5px;}#mermaid-0 .edge-pattern-solid{stroke-dasharray:0;}#mermaid-0 .edge-pattern-dashed{stroke-dasharray:3;}#mermaid-0 .edge-pattern-dotted{stroke-dasharray:2;}#mermaid-0 .marker{fill:#666;stroke:#666;}#mermaid-0 .marker.cross{stroke:#666;}#mermaid-0 svg{font-family:"trebuchet ms",verdana,arial,sans-serif;font-size:16px;}#mermaid-0 .entityBox{fill:#eee;stroke:#999;}#mermaid-0 .attributeBoxOdd{fill:#ffffff;stroke:#999;}#mermaid-0 .attributeBoxEven{fill:#f2f2f2;stroke:#999;}#mermaid-0 .relationshipLabelBox{fill:hsl(-160, 0%, 93.3333333333%);opacity:0.7;background-color:hsl(-160, 0%, 93.3333333333%);}#mermaid-0 .relationshipLabelBox rect{opacity:0.5;}#mermaid-0 .relationshipLine{stroke:#666;}#mermaid-0 .entityTitleText{text-anchor:middle;font-size:18px;fill:#000000;}#mermaid-0 :root{--mermaid-font-family:"trebuchet ms",verdana,arial,sans-serif;}</style><g/><defs><marker orient="auto" markerHeight="18" markerWidth="18" refY="9" refX="0" id="ONLY_ONE_START"><path d="M9,0 L9,18 M15,0 L15,18" fill="none" stroke="gray"/></marker></defs><defs><marker orient="auto" markerHeight="18" markerWidth="18" refY="9" refX="18" id="ONLY_ONE_END"><path d="M3,0 L3,18 M9,0 L9,18" fill="none" stroke="gray"/></marker></defs><defs><marker orient="auto" markerHeight="18" markerWidth="30" refY="9" refX="0" id="ZERO_OR_ONE_START"><circle r="6" cy="9" cx="21" fill="white" stroke="gray"/><path d="M9,0 L9,18" fill="none" stroke="gray"/></marker></defs><defs><marker orient="auto" markerHeight="18" markerWidth="30" refY="9" refX="30" id="ZERO_OR_ONE_END"><circle r="6" cy="9" cx="9" fill="white" stroke="gray"/><path d="M21,0 L21,18" fill="none" stroke="gray"/></marker></defs><defs><marker orient="auto" markerHeight="36" markerWidth="45" refY="18" refX="18" id="ONE_OR_MORE_START"><path d="M0,18 Q 18,0 36,18 Q 18,36 0,18 M42,9 L42,27" fill="none" stroke="gray"/></marker></defs><defs><marker orient="auto" markerHeight="36" markerWidth="45" refY="18" refX="27" id="ONE_OR_MORE_END"><path d="M3,9 L3,27 M9,18 Q27,0 45,18 Q27,36 9,18" fill="none" stroke="gray"/></marker></defs><defs><marker orient="auto" markerHeight="36" markerWidth="57" refY="18" refX="18" id="ZERO_OR_MORE_START"><circle r="6" cy="18" cx="48" fill="white" stroke="gray"/><path d="M0,18 Q18,0 36,18 Q18,36 0,18" fill="none" stroke="gray"/></marker></defs><defs><marker orient="auto" markerHeight="36" markerWidth="57" refY="18" refX="39" id="ZERO_OR_MORE_END"><circle r="6" cy="18" cx="9" fill="white" stroke="gray"/><path d="M21,18 Q39,0 57,18 Q39,36 21,18" fill="none" stroke="gray"/></marker></defs><path style="stroke: gray; fill: none;" marker-start="url(#ZERO_OR_MORE_START)" marker-end="url(#ONLY_ONE_END)" d="M87.69358825683594,88L87.69358825683594,96.33333333333333C87.69358825683594,104.66666666666667,87.69358825683594,121.33333333333333,87.69358825683594,149C87.69358825683594,176.66666666666666,87.69358825683594,215.33333333333334,87.69358825683594,234.66666666666666L87.69358825683594,254" class="er relationshipLine"/><path style="stroke: gray; fill: none;" marker-start="url(#ZERO_OR_MORE_START)" marker-end="url(#ONLY_ONE_END)" d="M140.73677090236117,88L153.73755096253893,96.33333333333333C166.7383310227167,104.66666666666667,192.7398911430722,121.33333333333333,215.00698157719202,140.29203589545355C237.27407201131186,159.2507384575738,255.80669275919595,180.50147691514758,265.073003133138,191.12684614393447L274.3393135070801,201.75221537272137" class="er relationshipLine"/><path style="stroke: gray; fill: none;" marker-start="url(#ZERO_OR_MORE_START)" marker-end="url(#ONLY_ONE_END)" d="M606.1390609741211,75.72615682016905L633.0583432515463,86.10513068347421C659.9776255289713,96.48410454677936,713.8161900838217,117.24205227338969,740.7354723612467,146.95435947002818C767.6547546386719,176.66666666666666,767.6547546386719,215.33333333333334,767.6547546386719,234.66666666666666L767.6547546386719,254" class="er relationshipLine"/><path style="stroke: gray; fill: none;" marker-start="url(#ZERO_OR_MORE_START)" marker-end="url(#ONLY_ONE_END)" d="M493.43956756591797,74.48657218270608L464.32321484883624,85.0721434855884C435.2068621317546,95.65771478847073,376.9741566975911,116.82885739423536,350.2802846006645,135.747762030451C323.5864125037378,154.66666666666666,328.4313737440479,171.33333333333334,330.85385436420296,179.66666666666666L333.27633498435796,188" class="er relationshipLine"/><path style="stroke: gray; fill: none;" marker-start="url(#ZERO_OR_MORE_START)" marker-end="url(#ONLY_ONE_END)" d="M830.1823959350586,74.65090332933362L858.9923184712728,85.20908610777802C887.8022410074869,95.76726888622242,945.4220860799154,116.8836344431112,974.2320086161295,146.77515055488894C1003.0419311523438,176.66666666666666,1003.0419311523438,215.33333333333334,1003.0419311523438,234.66666666666666L1003.0419311523438,254" class="er relationshipLine"/><path style="stroke: gray; fill: none;" marker-start="url(#ZERO_OR_MORE_START)" marker-end="url(#ONLY_ONE_END)" d="M717.4829025268555,69.8443989045587L677.0842851003011,81.20366575379892C636.6856676737467,92.56293260303914,555.8884328206381,115.28146630151957,510.33721138710195,134.97406648409313C464.785989953566,154.66666666666666,454.48078193960265,171.33333333333334,449.328177932621,179.66666666666666L444.1755739256393,188" class="er relationshipLine"/><path style="stroke: gray; fill: none;" marker-start="url(#ZERO_OR_MORE_START)" marker-end="url(#ONLY_ONE_END)" d="M1069.7235717773438,77.79593440670999L1097.8411610921223,87.82994533892499C1125.9587504069011,97.86395627114,1182.1939290364583,117.93197813556999,1210.311518351237,147.29932240111833C1238.4291076660156,176.66666666666666,1238.4291076660156,215.33333333333334,1238.4291076660156,234.66666666666666L1238.4291076660156,254" class="er relationshipLine"/><path style="stroke: gray; fill: none;" marker-start="url(#ZERO_OR_MORE_START)" marker-end="url(#ONLY_ONE_END)" d="M936.3602905273438,69.28581387804277L886.4013907114664,80.7381782317023C836.4424908955892,92.19054258536185,736.5246912638346,115.09527129268092,657.6552410125732,145.11148870645323C578.7857907613119,175.12770612022555,520.9646898905436,212.25541224045116,492.0541394551595,230.81926530056396L463.1435890197754,249.38311836067675" class="er relationshipLine"/><g transform="translate(274.3393135070801,188 )" id="entity-Movie-2dbb6b07-3e04-446b-b614-1084aac992af"><rect height="244" width="188.8042755126953" y="0" x="0" class="er entityBox"/><text style="dominant-baseline: middle; text-anchor: middle; font-size: 12px;" transform="translate(94.40213775634766,12)" y="0" x="0" id="text-entity-Movie-2dbb6b07-3e04-446b-b614-1084aac992af" class="er entityLabel">Movie</text><rect height="22" width="54.095550537109375" y="24" x="0" class="er attributeBoxOdd"/><text style="dominant-baseline: middle; font-size: 10.2px;" transform="translate(5,35)" y="0" x="0" id="text-entity-Movie-2dbb6b07-3e04-446b-b614-1084aac992af-attr-1-type" class="er entityLabel">Int</text><rect height="22" width="64.80850219726562" y="24" x="54.095550537109375" class="er attributeBoxOdd"/><text style="dominant-baseline: middle; font-size: 10.2px;" transform="translate(59.095550537109375,35)" y="0" x="0" id="text-entity-Movie-2dbb6b07-3e04-446b-b614-1084aac992af-attr-1-name" class="er entityLabel">id</text><rect height="22" width="22.68768310546875" y="24" x="118.904052734375" class="er attributeBoxOdd"/><text style="dominant-baseline: middle; font-size: 10.2px;" transform="translate(123.904052734375,35)" y="0" x="0" id="text-entity-Movie-2dbb6b07-3e04-446b-b614-1084aac992af-attr-1-key" class="er entityLabel">PK</text><rect height="22" width="47.21253967285156" y="24" x="141.59173583984375" class="er attributeBoxOdd"/><text style="dominant-baseline: middle; font-size: 10.2px;" transform="translate(146.59173583984375,35)" y="0" x="0" id="text-entity-Movie-2dbb6b07-3e04-446b-b614-1084aac992af-attr-1-comment" class="er entityLabel"/><rect height="22" width="54.095550537109375" y="46" x="0" class="er attributeBoxEven"/><text style="dominant-baseline: middle; font-size: 10.2px;" transform="translate(5,57)" y="0" x="0" id="text-entity-Movie-2dbb6b07-3e04-446b-b614-1084aac992af-attr-2-type" class="er entityLabel">String</text><rect height="22" width="64.80850219726562" y="46" x="54.095550537109375" class="er attributeBoxEven"/><text style="dominant-baseline: middle; font-size: 10.2px;" transform="translate(59.095550537109375,57)" y="0" x="0" id="text-entity-Movie-2dbb6b07-3e04-446b-b614-1084aac992af-attr-2-name" class="er entityLabel">title</text><rect height="22" width="22.68768310546875" y="46" x="118.904052734375" class="er attributeBoxEven"/><text style="dominant-baseline: middle; font-size: 10.2px;" transform="translate(123.904052734375,57)" y="0" x="0" id="text-entity-Movie-2dbb6b07-3e04-446b-b614-1084aac992af-attr-2-key" class="er entityLabel"/><rect height="22" width="47.21253967285156" y="46" x="141.59173583984375" class="er attributeBoxEven"/><text style="dominant-baseline: middle; font-size: 10.2px;" transform="translate(146.59173583984375,57)" y="0" x="0" id="text-entity-Movie-2dbb6b07-3e04-446b-b614-1084aac992af-attr-2-comment" class="er entityLabel"/><rect height="22" width="54.095550537109375" y="68" x="0" class="er attributeBoxOdd"/><text style="dominant-baseline: middle; font-size: 10.2px;" transform="translate(5,79)" y="0" x="0" id="text-entity-Movie-2dbb6b07-3e04-446b-b614-1084aac992af-attr-3-type" class="er entityLabel">DateTime</text><rect height="22" width="64.80850219726562" y="68" x="54.095550537109375" class="er attributeBoxOdd"/><text style="dominant-baseline: middle; font-size: 10.2px;" transform="translate(59.095550537109375,79)" y="0" x="0" id="text-entity-Movie-2dbb6b07-3e04-446b-b614-1084aac992af-attr-3-name" class="er entityLabel">releaseDate</text><rect height="22" width="22.68768310546875" y="68" x="118.904052734375" class="er attributeBoxOdd"/><text style="dominant-baseline: middle; font-size: 10.2px;" transform="translate(123.904052734375,79)" y="0" x="0" id="text-entity-Movie-2dbb6b07-3e04-446b-b614-1084aac992af-attr-3-key" class="er entityLabel"/><rect height="22" width="47.21253967285156" y="68" x="141.59173583984375" class="er attributeBoxOdd"/><text style="dominant-baseline: middle; font-size: 10.2px;" transform="translate(146.59173583984375,79)" y="0" x="0" id="text-entity-Movie-2dbb6b07-3e04-446b-b614-1084aac992af-attr-3-comment" class="er entityLabel">nullable</text><rect height="22" width="54.095550537109375" y="90" x="0" class="er attributeBoxEven"/><text style="dominant-baseline: middle; font-size: 10.2px;" transform="translate(5,101)" y="0" x="0" id="text-entity-Movie-2dbb6b07-3e04-446b-b614-1084aac992af-attr-4-type" class="er entityLabel">Int</text><rect height="22" width="64.80850219726562" y="90" x="54.095550537109375" class="er attributeBoxEven"/><text style="dominant-baseline: middle; font-size: 10.2px;" transform="translate(59.095550537109375,101)" y="0" x="0" id="text-entity-Movie-2dbb6b07-3e04-446b-b614-1084aac992af-attr-4-name" class="er entityLabel">runtime</text><rect height="22" width="22.68768310546875" y="90" x="118.904052734375" class="er attributeBoxEven"/><text style="dominant-baseline: middle; font-size: 10.2px;" transform="translate(123.904052734375,101)" y="0" x="0" id="text-entity-Movie-2dbb6b07-3e04-446b-b614-1084aac992af-attr-4-key" class="er entityLabel"/><rect height="22" width="47.21253967285156" y="90" x="141.59173583984375" class="er attributeBoxEven"/><text style="dominant-baseline: middle; font-size: 10.2px;" transform="translate(146.59173583984375,101)" y="0" x="0" id="text-entity-Movie-2dbb6b07-3e04-446b-b614-1084aac992af-attr-4-comment" class="er entityLabel">nullable</text><rect height="22" width="54.095550537109375" y="112" x="0" class="er attributeBoxOdd"/><text style="dominant-baseline: middle; font-size: 10.2px;" transform="translate(5,123)" y="0" x="0" id="text-entity-Movie-2dbb6b07-3e04-446b-b614-1084aac992af-attr-5-type" class="er entityLabel">String</text><rect height="22" width="64.80850219726562" y="112" x="54.095550537109375" class="er attributeBoxOdd"/><text style="dominant-baseline: middle; font-size: 10.2px;" transform="translate(59.095550537109375,123)" y="0" x="0" id="text-entity-Movie-2dbb6b07-3e04-446b-b614-1084aac992af-attr-5-name" class="er entityLabel">overview</text><rect height="22" width="22.68768310546875" y="112" x="118.904052734375" class="er attributeBoxOdd"/><text style="dominant-baseline: middle; font-size: 10.2px;" transform="translate(123.904052734375,123)" y="0" x="0" id="text-entity-Movie-2dbb6b07-3e04-446b-b614-1084aac992af-attr-5-key" class="er entityLabel"/><rect height="22" width="47.21253967285156" y="112" x="141.59173583984375" class="er attributeBoxOdd"/><text style="dominant-baseline: middle; font-size: 10.2px;" transform="translate(146.59173583984375,123)" y="0" x="0" id="text-entity-Movie-2dbb6b07-3e04-446b-b614-1084aac992af-attr-5-comment" class="er entityLabel">nullable</text><rect height="22" width="54.095550537109375" y="134" x="0" class="er attributeBoxEven"/><text style="dominant-baseline: middle; font-size: 10.2px;" transform="translate(5,145)" y="0" x="0" id="text-entity-Movie-2dbb6b07-3e04-446b-b614-1084aac992af-attr-6-type" class="er entityLabel">Int</text><rect height="22" width="64.80850219726562" y="134" x="54.095550537109375" class="er attributeBoxEven"/><text style="dominant-baseline: middle; font-size: 10.2px;" transform="translate(59.095550537109375,145)" y="0" x="0" id="text-entity-Movie-2dbb6b07-3e04-446b-b614-1084aac992af-attr-6-name" class="er entityLabel">budget</text><rect height="22" width="22.68768310546875" y="134" x="118.904052734375" class="er attributeBoxEven"/><text style="dominant-baseline: middle; font-size: 10.2px;" transform="translate(123.904052734375,145)" y="0" x="0" id="text-entity-Movie-2dbb6b07-3e04-446b-b614-1084aac992af-attr-6-key" class="er entityLabel"/><rect height="22" width="47.21253967285156" y="134" x="141.59173583984375" class="er attributeBoxEven"/><text style="dominant-baseline: middle; font-size: 10.2px;" transform="translate(146.59173583984375,145)" y="0" x="0" id="text-entity-Movie-2dbb6b07-3e04-446b-b614-1084aac992af-attr-6-comment" class="er entityLabel">nullable</text><rect height="22" width="54.095550537109375" y="156" x="0" class="er attributeBoxOdd"/><text style="dominant-baseline: middle; font-size: 10.2px;" transform="translate(5,167)" y="0" x="0" id="text-entity-Movie-2dbb6b07-3e04-446b-b614-1084aac992af-attr-7-type" class="er entityLabel">Int</text><rect height="22" width="64.80850219726562" y="156" x="54.095550537109375" class="er attributeBoxOdd"/><text style="dominant-baseline: middle; font-size: 10.2px;" transform="translate(59.095550537109375,167)" y="0" x="0" id="text-entity-Movie-2dbb6b07-3e04-446b-b614-1084aac992af-attr-7-name" class="er entityLabel">revenue</text><rect height="22" width="22.68768310546875" y="156" x="118.904052734375" class="er attributeBoxOdd"/><text style="dominant-baseline: middle; font-size: 10.2px;" transform="translate(123.904052734375,167)" y="0" x="0" id="text-entity-Movie-2dbb6b07-3e04-446b-b614-1084aac992af-attr-7-key" class="er entityLabel"/><rect height="22" width="47.21253967285156" y="156" x="141.59173583984375" class="er attributeBoxOdd"/><text style="dominant-baseline: middle; font-size: 10.2px;" transform="translate(146.59173583984375,167)" y="0" x="0" id="text-entity-Movie-2dbb6b07-3e04-446b-b614-1084aac992af-attr-7-comment" class="er entityLabel">nullable</text><rect height="22" width="54.095550537109375" y="178" x="0" class="er attributeBoxEven"/><text style="dominant-baseline: middle; font-size: 10.2px;" transform="translate(5,189)" y="0" x="0" id="text-entity-Movie-2dbb6b07-3e04-446b-b614-1084aac992af-attr-8-type" class="er entityLabel">String</text><rect height="22" width="64.80850219726562" y="178" x="54.095550537109375" class="er attributeBoxEven"/><text style="dominant-baseline: middle; font-size: 10.2px;" transform="translate(59.095550537109375,189)" y="0" x="0" id="text-entity-Movie-2dbb6b07-3e04-446b-b614-1084aac992af-attr-8-name" class="er entityLabel">cover</text><rect height="22" width="22.68768310546875" y="178" x="118.904052734375" class="er attributeBoxEven"/><text style="dominant-baseline: middle; font-size: 10.2px;" transform="translate(123.904052734375,189)" y="0" x="0" id="text-entity-Movie-2dbb6b07-3e04-446b-b614-1084aac992af-attr-8-key" class="er entityLabel"/><rect height="22" width="47.21253967285156" y="178" x="141.59173583984375" class="er attributeBoxEven"/><text style="dominant-baseline: middle; font-size: 10.2px;" transform="translate(146.59173583984375,189)" y="0" x="0" id="text-entity-Movie-2dbb6b07-3e04-446b-b614-1084aac992af-attr-8-comment" class="er entityLabel">nullable</text><rect height="22" width="54.095550537109375" y="200" x="0" class="er attributeBoxOdd"/><text style="dominant-baseline: middle; font-size: 10.2px;" transform="translate(5,211)" y="0" x="0" id="text-entity-Movie-2dbb6b07-3e04-446b-b614-1084aac992af-attr-9-type" class="er entityLabel">DateTime</text><rect height="22" width="64.80850219726562" y="200" x="54.095550537109375" class="er attributeBoxOdd"/><text style="dominant-baseline: middle; font-size: 10.2px;" transform="translate(59.095550537109375,211)" y="0" x="0" id="text-entity-Movie-2dbb6b07-3e04-446b-b614-1084aac992af-attr-9-name" class="er entityLabel">createdAt</text><rect height="22" width="22.68768310546875" y="200" x="118.904052734375" class="er attributeBoxOdd"/><text style="dominant-baseline: middle; font-size: 10.2px;" transform="translate(123.904052734375,211)" y="0" x="0" id="text-entity-Movie-2dbb6b07-3e04-446b-b614-1084aac992af-attr-9-key" class="er entityLabel"/><rect height="22" width="47.21253967285156" y="200" x="141.59173583984375" class="er attributeBoxOdd"/><text style="dominant-baseline: middle; font-size: 10.2px;" transform="translate(146.59173583984375,211)" y="0" x="0" id="text-entity-Movie-2dbb6b07-3e04-446b-b614-1084aac992af-attr-9-comment" class="er entityLabel"/><rect height="22" width="54.095550537109375" y="222" x="0" class="er attributeBoxEven"/><text style="dominant-baseline: middle; font-size: 10.2px;" transform="translate(5,233)" y="0" x="0" id="text-entity-Movie-2dbb6b07-3e04-446b-b614-1084aac992af-attr-10-type" class="er entityLabel">DateTime</text><rect height="22" width="64.80850219726562" y="222" x="54.095550537109375" class="er attributeBoxEven"/><text style="dominant-baseline: middle; font-size: 10.2px;" transform="translate(59.095550537109375,233)" y="0" x="0" id="text-entity-Movie-2dbb6b07-3e04-446b-b614-1084aac992af-attr-10-name" class="er entityLabel">updatedAt</text><rect height="22" width="22.68768310546875" y="222" x="118.904052734375" class="er attributeBoxEven"/><text style="dominant-baseline: middle; font-size: 10.2px;" transform="translate(123.904052734375,233)" y="0" x="0" id="text-entity-Movie-2dbb6b07-3e04-446b-b614-1084aac992af-attr-10-key" class="er entityLabel"/><rect height="22" width="47.21253967285156" y="222" x="141.59173583984375" class="er attributeBoxEven"/><text style="dominant-baseline: middle; font-size: 10.2px;" transform="translate(146.59173583984375,233)" y="0" x="0" id="text-entity-Movie-2dbb6b07-3e04-446b-b614-1084aac992af-attr-10-comment" class="er entityLabel"/></g><g transform="translate(20,254 )" id="entity-Genre-acc34081-f1bf-4f59-b789-1e70122bfe6e"><rect height="112" width="135.38717651367188" y="0" x="0" class="er entityBox"/><text style="dominant-baseline: middle; text-anchor: middle; font-size: 12px;" transform="translate(67.69358825683594,12)" y="0" x="0" id="text-entity-Genre-acc34081-f1bf-4f59-b789-1e70122bfe6e" class="er entityLabel">Genre</text><rect height="22" width="54.095550537109375" y="24" x="0" class="er attributeBoxOdd"/><text style="dominant-baseline: middle; font-size: 10.2px;" transform="translate(5,35)" y="0" x="0" id="text-entity-Genre-acc34081-f1bf-4f59-b789-1e70122bfe6e-attr-1-type" class="er entityLabel">Int</text><rect height="22" width="58.60394287109375" y="24" x="54.095550537109375" class="er attributeBoxOdd"/><text style="dominant-baseline: middle; font-size: 10.2px;" transform="translate(59.095550537109375,35)" y="0" x="0" id="text-entity-Genre-acc34081-f1bf-4f59-b789-1e70122bfe6e-attr-1-name" class="er entityLabel">id</text><rect height="22" width="22.68768310546875" y="24" x="112.69949340820312" class="er attributeBoxOdd"/><text style="dominant-baseline: middle; font-size: 10.2px;" transform="translate(117.69949340820312,35)" y="0" x="0" id="text-entity-Genre-acc34081-f1bf-4f59-b789-1e70122bfe6e-attr-1-key" class="er entityLabel">PK</text><rect height="22" width="54.095550537109375" y="46" x="0" class="er attributeBoxEven"/><text style="dominant-baseline: middle; font-size: 10.2px;" transform="translate(5,57)" y="0" x="0" id="text-entity-Genre-acc34081-f1bf-4f59-b789-1e70122bfe6e-attr-2-type" class="er entityLabel">String</text><rect height="22" width="58.60394287109375" y="46" x="54.095550537109375" class="er attributeBoxEven"/><text style="dominant-baseline: middle; font-size: 10.2px;" transform="translate(59.095550537109375,57)" y="0" x="0" id="text-entity-Genre-acc34081-f1bf-4f59-b789-1e70122bfe6e-attr-2-name" class="er entityLabel">name</text><rect height="22" width="22.68768310546875" y="46" x="112.69949340820312" class="er attributeBoxEven"/><text style="dominant-baseline: middle; font-size: 10.2px;" transform="translate(117.69949340820312,57)" y="0" x="0" id="text-entity-Genre-acc34081-f1bf-4f59-b789-1e70122bfe6e-attr-2-key" class="er entityLabel"/><rect height="22" width="54.095550537109375" y="68" x="0" class="er attributeBoxOdd"/><text style="dominant-baseline: middle; font-size: 10.2px;" transform="translate(5,79)" y="0" x="0" id="text-entity-Genre-acc34081-f1bf-4f59-b789-1e70122bfe6e-attr-3-type" class="er entityLabel">DateTime</text><rect height="22" width="58.60394287109375" y="68" x="54.095550537109375" class="er attributeBoxOdd"/><text style="dominant-baseline: middle; font-size: 10.2px;" transform="translate(59.095550537109375,79)" y="0" x="0" id="text-entity-Genre-acc34081-f1bf-4f59-b789-1e70122bfe6e-attr-3-name" class="er entityLabel">createdAt</text><rect height="22" width="22.68768310546875" y="68" x="112.69949340820312" class="er attributeBoxOdd"/><text style="dominant-baseline: middle; font-size: 10.2px;" transform="translate(117.69949340820312,79)" y="0" x="0" id="text-entity-Genre-acc34081-f1bf-4f59-b789-1e70122bfe6e-attr-3-key" class="er entityLabel"/><rect height="22" width="54.095550537109375" y="90" x="0" class="er attributeBoxEven"/><text style="dominant-baseline: middle; font-size: 10.2px;" transform="translate(5,101)" y="0" x="0" id="text-entity-Genre-acc34081-f1bf-4f59-b789-1e70122bfe6e-attr-4-type" class="er entityLabel">DateTime</text><rect height="22" width="58.60394287109375" y="90" x="54.095550537109375" class="er attributeBoxEven"/><text style="dominant-baseline: middle; font-size: 10.2px;" transform="translate(59.095550537109375,101)" y="0" x="0" id="text-entity-Genre-acc34081-f1bf-4f59-b789-1e70122bfe6e-attr-4-name" class="er entityLabel">updatedAt</text><rect height="22" width="22.68768310546875" y="90" x="112.69949340820312" class="er attributeBoxEven"/><text style="dominant-baseline: middle; font-size: 10.2px;" transform="translate(117.69949340820312,101)" y="0" x="0" id="text-entity-Genre-acc34081-f1bf-4f59-b789-1e70122bfe6e-attr-4-key" class="er entityLabel"/></g><g transform="translate(31.343841552734375,20 )" id="entity-MovieGenre-7358efe9-d469-4ac6-a320-5908d5a36ed2"><rect height="68" width="112.69949340820312" y="0" x="0" class="er entityBox"/><text style="dominant-baseline: middle; text-anchor: middle; font-size: 12px;" transform="translate(56.34974670410156,12)" y="0" x="0" id="text-entity-MovieGenre-7358efe9-d469-4ac6-a320-5908d5a36ed2" class="er entityLabel">MovieGenre</text><rect height="22" width="54.095550537109375" y="24" x="0" class="er attributeBoxOdd"/><text style="dominant-baseline: middle; font-size: 10.2px;" transform="translate(5,35)" y="0" x="0" id="text-entity-MovieGenre-7358efe9-d469-4ac6-a320-5908d5a36ed2-attr-1-type" class="er entityLabel">DateTime</text><rect height="22" width="58.60394287109375" y="24" x="54.095550537109375" class="er attributeBoxOdd"/><text style="dominant-baseline: middle; font-size: 10.2px;" transform="translate(59.095550537109375,35)" y="0" x="0" id="text-entity-MovieGenre-7358efe9-d469-4ac6-a320-5908d5a36ed2-attr-1-name" class="er entityLabel">createdAt</text><rect height="22" width="54.095550537109375" y="46" x="0" class="er attributeBoxEven"/><text style="dominant-baseline: middle; font-size: 10.2px;" transform="translate(5,57)" y="0" x="0" id="text-entity-MovieGenre-7358efe9-d469-4ac6-a320-5908d5a36ed2-attr-2-type" class="er entityLabel">DateTime</text><rect height="22" width="58.60394287109375" y="46" x="54.095550537109375" class="er attributeBoxEven"/><text style="dominant-baseline: middle; font-size: 10.2px;" transform="translate(59.095550537109375,57)" y="0" x="0" id="text-entity-MovieGenre-7358efe9-d469-4ac6-a320-5908d5a36ed2-attr-2-name" class="er entityLabel">updatedAt</text></g><g transform="translate(699.9611663818359,254 )" id="entity-Actor-1b4ed351-22eb-418c-8dae-cae52e815a28"><rect height="112" width="135.38717651367188" y="0" x="0" class="er entityBox"/><text style="dominant-baseline: middle; text-anchor: middle; font-size: 12px;" transform="translate(67.69358825683594,12)" y="0" x="0" id="text-entity-Actor-1b4ed351-22eb-418c-8dae-cae52e815a28" class="er entityLabel">Actor</text><rect height="22" width="54.095550537109375" y="24" x="0" class="er attributeBoxOdd"/><text style="dominant-baseline: middle; font-size: 10.2px;" transform="translate(5,35)" y="0" x="0" id="text-entity-Actor-1b4ed351-22eb-418c-8dae-cae52e815a28-attr-1-type" class="er entityLabel">Int</text><rect height="22" width="58.60394287109375" y="24" x="54.095550537109375" class="er attributeBoxOdd"/><text style="dominant-baseline: middle; font-size: 10.2px;" transform="translate(59.095550537109375,35)" y="0" x="0" id="text-entity-Actor-1b4ed351-22eb-418c-8dae-cae52e815a28-attr-1-name" class="er entityLabel">id</text><rect height="22" width="22.68768310546875" y="24" x="112.69949340820312" class="er attributeBoxOdd"/><text style="dominant-baseline: middle; font-size: 10.2px;" transform="translate(117.69949340820312,35)" y="0" x="0" id="text-entity-Actor-1b4ed351-22eb-418c-8dae-cae52e815a28-attr-1-key" class="er entityLabel">PK</text><rect height="22" width="54.095550537109375" y="46" x="0" class="er attributeBoxEven"/><text style="dominant-baseline: middle; font-size: 10.2px;" transform="translate(5,57)" y="0" x="0" id="text-entity-Actor-1b4ed351-22eb-418c-8dae-cae52e815a28-attr-2-type" class="er entityLabel">String</text><rect height="22" width="58.60394287109375" y="46" x="54.095550537109375" class="er attributeBoxEven"/><text style="dominant-baseline: middle; font-size: 10.2px;" transform="translate(59.095550537109375,57)" y="0" x="0" id="text-entity-Actor-1b4ed351-22eb-418c-8dae-cae52e815a28-attr-2-name" class="er entityLabel">name</text><rect height="22" width="22.68768310546875" y="46" x="112.69949340820312" class="er attributeBoxEven"/><text style="dominant-baseline: middle; font-size: 10.2px;" transform="translate(117.69949340820312,57)" y="0" x="0" id="text-entity-Actor-1b4ed351-22eb-418c-8dae-cae52e815a28-attr-2-key" class="er entityLabel"/><rect height="22" width="54.095550537109375" y="68" x="0" class="er attributeBoxOdd"/><text style="dominant-baseline: middle; font-size: 10.2px;" transform="translate(5,79)" y="0" x="0" id="text-entity-Actor-1b4ed351-22eb-418c-8dae-cae52e815a28-attr-3-type" class="er entityLabel">DateTime</text><rect height="22" width="58.60394287109375" y="68" x="54.095550537109375" class="er attributeBoxOdd"/><text style="dominant-baseline: middle; font-size: 10.2px;" transform="translate(59.095550537109375,79)" y="0" x="0" id="text-entity-Actor-1b4ed351-22eb-418c-8dae-cae52e815a28-attr-3-name" class="er entityLabel">createdAt</text><rect height="22" width="22.68768310546875" y="68" x="112.69949340820312" class="er attributeBoxOdd"/><text style="dominant-baseline: middle; font-size: 10.2px;" transform="translate(117.69949340820312,79)" y="0" x="0" id="text-entity-Actor-1b4ed351-22eb-418c-8dae-cae52e815a28-attr-3-key" class="er entityLabel"/><rect height="22" width="54.095550537109375" y="90" x="0" class="er attributeBoxEven"/><text style="dominant-baseline: middle; font-size: 10.2px;" transform="translate(5,101)" y="0" x="0" id="text-entity-Actor-1b4ed351-22eb-418c-8dae-cae52e815a28-attr-4-type" class="er entityLabel">DateTime</text><rect height="22" width="58.60394287109375" y="90" x="54.095550537109375" class="er attributeBoxEven"/><text style="dominant-baseline: middle; font-size: 10.2px;" transform="translate(59.095550537109375,101)" y="0" x="0" id="text-entity-Actor-1b4ed351-22eb-418c-8dae-cae52e815a28-attr-4-name" class="er entityLabel">updatedAt</text><rect height="22" width="22.68768310546875" y="90" x="112.69949340820312" class="er attributeBoxEven"/><text style="dominant-baseline: middle; font-size: 10.2px;" transform="translate(117.69949340820312,101)" y="0" x="0" id="text-entity-Actor-1b4ed351-22eb-418c-8dae-cae52e815a28-attr-4-key" class="er entityLabel"/></g><g transform="translate(493.43956756591797,20 )" id="entity-MovieActor-d28f1b16-70f5-44a1-b797-f97165e8f3c1"><rect height="68" width="112.69949340820312" y="0" x="0" class="er entityBox"/><text style="dominant-baseline: middle; text-anchor: middle; font-size: 12px;" transform="translate(56.34974670410156,12)" y="0" x="0" id="text-entity-MovieActor-d28f1b16-70f5-44a1-b797-f97165e8f3c1" class="er entityLabel">MovieActor</text><rect height="22" width="54.095550537109375" y="24" x="0" class="er attributeBoxOdd"/><text style="dominant-baseline: middle; font-size: 10.2px;" transform="translate(5,35)" y="0" x="0" id="text-entity-MovieActor-d28f1b16-70f5-44a1-b797-f97165e8f3c1-attr-1-type" class="er entityLabel">DateTime</text><rect height="22" width="58.60394287109375" y="24" x="54.095550537109375" class="er attributeBoxOdd"/><text style="dominant-baseline: middle; font-size: 10.2px;" transform="translate(59.095550537109375,35)" y="0" x="0" id="text-entity-MovieActor-d28f1b16-70f5-44a1-b797-f97165e8f3c1-attr-1-name" class="er entityLabel">createdAt</text><rect height="22" width="54.095550537109375" y="46" x="0" class="er attributeBoxEven"/><text style="dominant-baseline: middle; font-size: 10.2px;" transform="translate(5,57)" y="0" x="0" id="text-entity-MovieActor-d28f1b16-70f5-44a1-b797-f97165e8f3c1-attr-2-type" class="er entityLabel">DateTime</text><rect height="22" width="58.60394287109375" y="46" x="54.095550537109375" class="er attributeBoxEven"/><text style="dominant-baseline: middle; font-size: 10.2px;" transform="translate(59.095550537109375,57)" y="0" x="0" id="text-entity-MovieActor-d28f1b16-70f5-44a1-b797-f97165e8f3c1-attr-2-name" class="er entityLabel">updatedAt</text></g><g transform="translate(935.3483428955078,254 )" id="entity-Director-02e939c4-7d70-44eb-b002-7a6668690f5f"><rect height="112" width="135.38717651367188" y="0" x="0" class="er entityBox"/><text style="dominant-baseline: middle; text-anchor: middle; font-size: 12px;" transform="translate(67.69358825683594,12)" y="0" x="0" id="text-entity-Director-02e939c4-7d70-44eb-b002-7a6668690f5f" class="er entityLabel">Director</text><rect height="22" width="54.095550537109375" y="24" x="0" class="er attributeBoxOdd"/><text style="dominant-baseline: middle; font-size: 10.2px;" transform="translate(5,35)" y="0" x="0" id="text-entity-Director-02e939c4-7d70-44eb-b002-7a6668690f5f-attr-1-type" class="er entityLabel">Int</text><rect height="22" width="58.60394287109375" y="24" x="54.095550537109375" class="er attributeBoxOdd"/><text style="dominant-baseline: middle; font-size: 10.2px;" transform="translate(59.095550537109375,35)" y="0" x="0" id="text-entity-Director-02e939c4-7d70-44eb-b002-7a6668690f5f-attr-1-name" class="er entityLabel">id</text><rect height="22" width="22.68768310546875" y="24" x="112.69949340820312" class="er attributeBoxOdd"/><text style="dominant-baseline: middle; font-size: 10.2px;" transform="translate(117.69949340820312,35)" y="0" x="0" id="text-entity-Director-02e939c4-7d70-44eb-b002-7a6668690f5f-attr-1-key" class="er entityLabel">PK</text><rect height="22" width="54.095550537109375" y="46" x="0" class="er attributeBoxEven"/><text style="dominant-baseline: middle; font-size: 10.2px;" transform="translate(5,57)" y="0" x="0" id="text-entity-Director-02e939c4-7d70-44eb-b002-7a6668690f5f-attr-2-type" class="er entityLabel">String</text><rect height="22" width="58.60394287109375" y="46" x="54.095550537109375" class="er attributeBoxEven"/><text style="dominant-baseline: middle; font-size: 10.2px;" transform="translate(59.095550537109375,57)" y="0" x="0" id="text-entity-Director-02e939c4-7d70-44eb-b002-7a6668690f5f-attr-2-name" class="er entityLabel">name</text><rect height="22" width="22.68768310546875" y="46" x="112.69949340820312" class="er attributeBoxEven"/><text style="dominant-baseline: middle; font-size: 10.2px;" transform="translate(117.69949340820312,57)" y="0" x="0" id="text-entity-Director-02e939c4-7d70-44eb-b002-7a6668690f5f-attr-2-key" class="er entityLabel"/><rect height="22" width="54.095550537109375" y="68" x="0" class="er attributeBoxOdd"/><text style="dominant-baseline: middle; font-size: 10.2px;" transform="translate(5,79)" y="0" x="0" id="text-entity-Director-02e939c4-7d70-44eb-b002-7a6668690f5f-attr-3-type" class="er entityLabel">DateTime</text><rect height="22" width="58.60394287109375" y="68" x="54.095550537109375" class="er attributeBoxOdd"/><text style="dominant-baseline: middle; font-size: 10.2px;" transform="translate(59.095550537109375,79)" y="0" x="0" id="text-entity-Director-02e939c4-7d70-44eb-b002-7a6668690f5f-attr-3-name" class="er entityLabel">createdAt</text><rect height="22" width="22.68768310546875" y="68" x="112.69949340820312" class="er attributeBoxOdd"/><text style="dominant-baseline: middle; font-size: 10.2px;" transform="translate(117.69949340820312,79)" y="0" x="0" id="text-entity-Director-02e939c4-7d70-44eb-b002-7a6668690f5f-attr-3-key" class="er entityLabel"/><rect height="22" width="54.095550537109375" y="90" x="0" class="er attributeBoxEven"/><text style="dominant-baseline: middle; font-size: 10.2px;" transform="translate(5,101)" y="0" x="0" id="text-entity-Director-02e939c4-7d70-44eb-b002-7a6668690f5f-attr-4-type" class="er entityLabel">DateTime</text><rect height="22" width="58.60394287109375" y="90" x="54.095550537109375" class="er attributeBoxEven"/><text style="dominant-baseline: middle; font-size: 10.2px;" transform="translate(59.095550537109375,101)" y="0" x="0" id="text-entity-Director-02e939c4-7d70-44eb-b002-7a6668690f5f-attr-4-name" class="er entityLabel">updatedAt</text><rect height="22" width="22.68768310546875" y="90" x="112.69949340820312" class="er attributeBoxEven"/><text style="dominant-baseline: middle; font-size: 10.2px;" transform="translate(117.69949340820312,101)" y="0" x="0" id="text-entity-Director-02e939c4-7d70-44eb-b002-7a6668690f5f-attr-4-key" class="er entityLabel"/></g><g transform="translate(717.4829025268555,20 )" id="entity-MovieDirector-a531b64a-2d6a-454d-bd53-b1f83c6b0dd8"><rect height="68" width="112.69949340820312" y="0" x="0" class="er entityBox"/><text style="dominant-baseline: middle; text-anchor: middle; font-size: 12px;" transform="translate(56.34974670410156,12)" y="0" x="0" id="text-entity-MovieDirector-a531b64a-2d6a-454d-bd53-b1f83c6b0dd8" class="er entityLabel">MovieDirector</text><rect height="22" width="54.095550537109375" y="24" x="0" class="er attributeBoxOdd"/><text style="dominant-baseline: middle; font-size: 10.2px;" transform="translate(5,35)" y="0" x="0" id="text-entity-MovieDirector-a531b64a-2d6a-454d-bd53-b1f83c6b0dd8-attr-1-type" class="er entityLabel">DateTime</text><rect height="22" width="58.60394287109375" y="24" x="54.095550537109375" class="er attributeBoxOdd"/><text style="dominant-baseline: middle; font-size: 10.2px;" transform="translate(59.095550537109375,35)" y="0" x="0" id="text-entity-MovieDirector-a531b64a-2d6a-454d-bd53-b1f83c6b0dd8-attr-1-name" class="er entityLabel">createdAt</text><rect height="22" width="54.095550537109375" y="46" x="0" class="er attributeBoxEven"/><text style="dominant-baseline: middle; font-size: 10.2px;" transform="translate(5,57)" y="0" x="0" id="text-entity-MovieDirector-a531b64a-2d6a-454d-bd53-b1f83c6b0dd8-attr-2-type" class="er entityLabel">DateTime</text><rect height="22" width="58.60394287109375" y="46" x="54.095550537109375" class="er attributeBoxEven"/><text style="dominant-baseline: middle; font-size: 10.2px;" transform="translate(59.095550537109375,57)" y="0" x="0" id="text-entity-MovieDirector-a531b64a-2d6a-454d-bd53-b1f83c6b0dd8-attr-2-name" class="er entityLabel">updatedAt</text></g><g transform="translate(1170.7355194091797,254 )" id="entity-CrewMember-9d59ce9a-a87c-40d0-bb65-569855a76b81"><rect height="112" width="135.38717651367188" y="0" x="0" class="er entityBox"/><text style="dominant-baseline: middle; text-anchor: middle; font-size: 12px;" transform="translate(67.69358825683594,12)" y="0" x="0" id="text-entity-CrewMember-9d59ce9a-a87c-40d0-bb65-569855a76b81" class="er entityLabel">CrewMember</text><rect height="22" width="54.095550537109375" y="24" x="0" class="er attributeBoxOdd"/><text style="dominant-baseline: middle; font-size: 10.2px;" transform="translate(5,35)" y="0" x="0" id="text-entity-CrewMember-9d59ce9a-a87c-40d0-bb65-569855a76b81-attr-1-type" class="er entityLabel">Int</text><rect height="22" width="58.60394287109375" y="24" x="54.095550537109375" class="er attributeBoxOdd"/><text style="dominant-baseline: middle; font-size: 10.2px;" transform="translate(59.095550537109375,35)" y="0" x="0" id="text-entity-CrewMember-9d59ce9a-a87c-40d0-bb65-569855a76b81-attr-1-name" class="er entityLabel">id</text><rect height="22" width="22.68768310546875" y="24" x="112.69949340820312" class="er attributeBoxOdd"/><text style="dominant-baseline: middle; font-size: 10.2px;" transform="translate(117.69949340820312,35)" y="0" x="0" id="text-entity-CrewMember-9d59ce9a-a87c-40d0-bb65-569855a76b81-attr-1-key" class="er entityLabel">PK</text><rect height="22" width="54.095550537109375" y="46" x="0" class="er attributeBoxEven"/><text style="dominant-baseline: middle; font-size: 10.2px;" transform="translate(5,57)" y="0" x="0" id="text-entity-CrewMember-9d59ce9a-a87c-40d0-bb65-569855a76b81-attr-2-type" class="er entityLabel">String</text><rect height="22" width="58.60394287109375" y="46" x="54.095550537109375" class="er attributeBoxEven"/><text style="dominant-baseline: middle; font-size: 10.2px;" transform="translate(59.095550537109375,57)" y="0" x="0" id="text-entity-CrewMember-9d59ce9a-a87c-40d0-bb65-569855a76b81-attr-2-name" class="er entityLabel">name</text><rect height="22" width="22.68768310546875" y="46" x="112.69949340820312" class="er attributeBoxEven"/><text style="dominant-baseline: middle; font-size: 10.2px;" transform="translate(117.69949340820312,57)" y="0" x="0" id="text-entity-CrewMember-9d59ce9a-a87c-40d0-bb65-569855a76b81-attr-2-key" class="er entityLabel"/><rect height="22" width="54.095550537109375" y="68" x="0" class="er attributeBoxOdd"/><text style="dominant-baseline: middle; font-size: 10.2px;" transform="translate(5,79)" y="0" x="0" id="text-entity-CrewMember-9d59ce9a-a87c-40d0-bb65-569855a76b81-attr-3-type" class="er entityLabel">DateTime</text><rect height="22" width="58.60394287109375" y="68" x="54.095550537109375" class="er attributeBoxOdd"/><text style="dominant-baseline: middle; font-size: 10.2px;" transform="translate(59.095550537109375,79)" y="0" x="0" id="text-entity-CrewMember-9d59ce9a-a87c-40d0-bb65-569855a76b81-attr-3-name" class="er entityLabel">createdAt</text><rect height="22" width="22.68768310546875" y="68" x="112.69949340820312" class="er attributeBoxOdd"/><text style="dominant-baseline: middle; font-size: 10.2px;" transform="translate(117.69949340820312,79)" y="0" x="0" id="text-entity-CrewMember-9d59ce9a-a87c-40d0-bb65-569855a76b81-attr-3-key" class="er entityLabel"/><rect height="22" width="54.095550537109375" y="90" x="0" class="er attributeBoxEven"/><text style="dominant-baseline: middle; font-size: 10.2px;" transform="translate(5,101)" y="0" x="0" id="text-entity-CrewMember-9d59ce9a-a87c-40d0-bb65-569855a76b81-attr-4-type" class="er entityLabel">DateTime</text><rect height="22" width="58.60394287109375" y="90" x="54.095550537109375" class="er attributeBoxEven"/><text style="dominant-baseline: middle; font-size: 10.2px;" transform="translate(59.095550537109375,101)" y="0" x="0" id="text-entity-CrewMember-9d59ce9a-a87c-40d0-bb65-569855a76b81-attr-4-name" class="er entityLabel">updatedAt</text><rect height="22" width="22.68768310546875" y="90" x="112.69949340820312" class="er attributeBoxEven"/><text style="dominant-baseline: middle; font-size: 10.2px;" transform="translate(117.69949340820312,101)" y="0" x="0" id="text-entity-CrewMember-9d59ce9a-a87c-40d0-bb65-569855a76b81-attr-4-key" class="er entityLabel"/></g><g transform="translate(936.3602905273438,20 )" id="entity-MovieCrewMember-7fe17245-330d-4548-bf75-8ed5e42b8265"><rect height="68" width="133.36328125" y="0" x="0" class="er entityBox"/><text style="dominant-baseline: middle; text-anchor: middle; font-size: 12px;" transform="translate(66.681640625,12)" y="0" x="0" id="text-entity-MovieCrewMember-7fe17245-330d-4548-bf75-8ed5e42b8265" class="er entityLabel">MovieCrewMember</text><rect height="22" width="64.42744445800781" y="24" x="0" class="er attributeBoxOdd"/><text style="dominant-baseline: middle; font-size: 10.2px;" transform="translate(5,35)" y="0" x="0" id="text-entity-MovieCrewMember-7fe17245-330d-4548-bf75-8ed5e42b8265-attr-1-type" class="er entityLabel">DateTime</text><rect height="22" width="68.93583679199219" y="24" x="64.42744445800781" class="er attributeBoxOdd"/><text style="dominant-baseline: middle; font-size: 10.2px;" transform="translate(69.42744445800781,35)" y="0" x="0" id="text-entity-MovieCrewMember-7fe17245-330d-4548-bf75-8ed5e42b8265-attr-1-name" class="er entityLabel">createdAt</text><rect height="22" width="64.42744445800781" y="46" x="0" class="er attributeBoxEven"/><text style="dominant-baseline: middle; font-size: 10.2px;" transform="translate(5,57)" y="0" x="0" id="text-entity-MovieCrewMember-7fe17245-330d-4548-bf75-8ed5e42b8265-attr-2-type" class="er entityLabel">DateTime</text><rect height="22" width="68.93583679199219" y="46" x="64.42744445800781" class="er attributeBoxEven"/><text style="dominant-baseline: middle; font-size: 10.2px;" transform="translate(69.42744445800781,57)" y="0" x="0" id="text-entity-MovieCrewMember-7fe17245-330d-4548-bf75-8ed5e42b8265-attr-2-name" class="er entityLabel">updatedAt</text></g><rect height="14" width="30.7890625" y="164" x="72.29905700683594" class="er relationshipLabelBox"/><text style="text-anchor: middle; dominant-baseline: middle; font-size: 12px;" y="171" x="87.69358825683594" id="rel1" class="er relationshipLabel">genre</text><rect height="14" width="32.69921875" y="131.5531768798828" x="196.5971221923828" class="er relationshipLabelBox"/><text style="text-anchor: middle; dominant-baseline: middle; font-size: 12px;" y="138.5531768798828" x="212.9467315673828" id="rel2" class="er relationshipLabel">movie</text><rect height="14" width="29.443359375" y="126.386474609375" x="711.2462158203125" class="er relationshipLabelBox"/><text style="text-anchor: middle; dominant-baseline: middle; font-size: 12px;" y="133.386474609375" x="725.9678955078125" id="rel3" class="er relationshipLabel">actor</text><rect height="14" width="32.69921875" y="106.37035369873047" x="375.9023132324219" class="er relationshipLabelBox"/><text style="text-anchor: middle; dominant-baseline: middle; font-size: 12px;" y="113.37035369873047" x="392.2519226074219" id="rel4" class="er relationshipLabel">movie</text><rect height="14" width="44.455078125" y="124.31756591796875" x="933.7299194335938" class="er relationshipLabelBox"/><text style="text-anchor: middle; dominant-baseline: middle; font-size: 12px;" y="131.31756591796875" x="955.9574584960938" id="rel5" class="er relationshipLabel">director</text><rect height="14" width="32.69921875" y="105.56591033935547" x="555.3038330078125" class="er relationshipLabelBox"/><text style="text-anchor: middle; dominant-baseline: middle; font-size: 12px;" y="112.56591033935547" x="571.6534423828125" id="rel6" class="er relationshipLabel">movie</text><rect height="14" width="70.330078125" y="125.86126708984375" x="1158.270263671875" class="er relationshipLabelBox"/><text style="text-anchor: middle; dominant-baseline: middle; font-size: 12px;" y="132.86126708984375" x="1193.435302734375" id="rel7" class="er relationshipLabel">crewMember</text><rect height="14" width="32.69921875" y="126.67915344238281" x="673.2614135742188" class="er relationshipLabelBox"/><text style="text-anchor: middle; dominant-baseline: middle; font-size: 12px;" y="133.6791534423828" x="689.6110229492188" id="rel8" class="er relationshipLabel">movie</text></svg>