<svg aria-roledescription="er" viewBox="0 0 466.91473388671875 496" style="max-width: 466.915px; background-color: white;" xmlns:xlink="http://www.w3.org/1999/xlink" xmlns="http://www.w3.org/2000/svg" width="100%" id="mermaid-0"><style>#mermaid-0{font-family:"trebuchet ms",verdana,arial,sans-serif;font-size:16px;fill:#000000;}#mermaid-0 .error-icon{fill:#552222;}#mermaid-0 .error-text{fill:#552222;stroke:#552222;}#mermaid-0 .edge-thickness-normal{stroke-width:2px;}#mermaid-0 .edge-thickness-thick{stroke-width:3.5px;}#mermaid-0 .edge-pattern-solid{stroke-dasharray:0;}#mermaid-0 .edge-pattern-dashed{stroke-dasharray:3;}#mermaid-0 .edge-pattern-dotted{stroke-dasharray:2;}#mermaid-0 .marker{fill:#666;stroke:#666;}#mermaid-0 .marker.cross{stroke:#666;}#mermaid-0 svg{font-family:"trebuchet ms",verdana,arial,sans-serif;font-size:16px;}#mermaid-0 .entityBox{fill:#eee;stroke:#999;}#mermaid-0 .attributeBoxOdd{fill:#ffffff;stroke:#999;}#mermaid-0 .attributeBoxEven{fill:#f2f2f2;stroke:#999;}#mermaid-0 .relationshipLabelBox{fill:hsl(-160, 0%, 93.3333333333%);opacity:0.7;background-color:hsl(-160, 0%, 93.3333333333%);}#mermaid-0 .relationshipLabelBox rect{opacity:0.5;}#mermaid-0 .relationshipLine{stroke:#666;}#mermaid-0 .entityTitleText{text-anchor:middle;font-size:18px;fill:#000000;}#mermaid-0 :root{--mermaid-font-family:"trebuchet ms",verdana,arial,sans-serif;}</style><g/><defs><marker orient="auto" markerHeight="18" markerWidth="18" refY="9" refX="0" id="ONLY_ONE_START"><path d="M9,0 L9,18 M15,0 L15,18" fill="none" stroke="gray"/></marker></defs><defs><marker orient="auto" markerHeight="18" markerWidth="18" refY="9" refX="18" id="ONLY_ONE_END"><path d="M3,0 L3,18 M9,0 L9,18" fill="none" stroke="gray"/></marker></defs><defs><marker orient="auto" markerHeight="18" markerWidth="30" refY="9" refX="0" id="ZERO_OR_ONE_START"><circle r="6" cy="9" cx="21" fill="white" stroke="gray"/><path d="M9,0 L9,18" fill="none" stroke="gray"/></marker></defs><defs><marker orient="auto" markerHeight="18" markerWidth="30" refY="9" refX="30" id="ZERO_OR_ONE_END"><circle r="6" cy="9" cx="9" fill="white" stroke="gray"/><path d="M21,0 L21,18" fill="none" stroke="gray"/></marker></defs><defs><marker orient="auto" markerHeight="36" markerWidth="45" refY="18" refX="18" id="ONE_OR_MORE_START"><path d="M0,18 Q 18,0 36,18 Q 18,36 0,18 M42,9 L42,27" fill="none" stroke="gray"/></marker></defs><defs><marker orient="auto" markerHeight="36" markerWidth="45" refY="18" refX="27" id="ONE_OR_MORE_END"><path d="M3,9 L3,27 M9,18 Q27,0 45,18 Q27,36 9,18" fill="none" stroke="gray"/></marker></defs><defs><marker orient="auto" markerHeight="36" markerWidth="57" refY="18" refX="18" id="ZERO_OR_MORE_START"><circle r="6" cy="18" cx="48" fill="white" stroke="gray"/><path d="M0,18 Q18,0 36,18 Q18,36 0,18" fill="none" stroke="gray"/></marker></defs><defs><marker orient="auto" markerHeight="36" markerWidth="57" refY="18" refX="39" id="ZERO_OR_MORE_END"><circle r="6" cy="18" cx="9" fill="white" stroke="gray"/><path d="M21,18 Q39,0 57,18 Q39,36 21,18" fill="none" stroke="gray"/></marker></defs><path style="stroke: gray; fill: none;" marker-start="url(#ZERO_OR_MORE_START)" marker-end="url(#ONLY_ONE_END)" d="M194.17369942438035,88L181.10537802983845,96.33333333333333C168.03705663529652,104.66666666666667,141.90041384621273,121.33333333333333,128.83209245167083,138C115.7637710571289,154.66666666666666,115.7637710571289,171.33333333333334,115.7637710571289,179.66666666666666L115.7637710571289,188" class="er relationshipLine"/><path style="stroke: gray; fill: none;" marker-start="url(#ZERO_OR_MORE_START)" marker-end="url(#ONLY_ONE_END)" d="M300.8112020038423,88L313.8795233983842,96.33333333333333C326.9478447929261,104.66666666666667,353.0844875820099,121.33333333333333,366.15280897655185,152.66666666666666C379.22113037109375,184,379.22113037109375,230,379.22113037109375,253L379.22113037109375,276" class="er relationshipLine"/><g transform="translate(20,188 )" id="entity-Movie-a11ad02d-a88e-4f05-8f69-bdd1717d5215"><rect height="288" width="191.5275421142578" y="0" x="0" class="er entityBox"/><text style="dominant-baseline: middle; text-anchor: middle; font-size: 12px;" transform="translate(95.7637710571289,12)" y="0" x="0" id="text-entity-Movie-a11ad02d-a88e-4f05-8f69-bdd1717d5215" class="er entityLabel">Movie</text><rect height="22" width="54.095550537109375" y="24" x="0" class="er attributeBoxOdd"/><text style="dominant-baseline: middle; font-size: 10.2px;" transform="translate(5,35)" y="0" x="0" id="text-entity-Movie-a11ad02d-a88e-4f05-8f69-bdd1717d5215-attr-1-type" class="er entityLabel">Int</text><rect height="22" width="67.53176879882812" y="24" x="54.095550537109375" class="er attributeBoxOdd"/><text style="dominant-baseline: middle; font-size: 10.2px;" transform="translate(59.095550537109375,35)" y="0" x="0" id="text-entity-Movie-a11ad02d-a88e-4f05-8f69-bdd1717d5215-attr-1-name" class="er entityLabel">id</text><rect height="22" width="22.68768310546875" y="24" x="121.6273193359375" class="er attributeBoxOdd"/><text style="dominant-baseline: middle; font-size: 10.2px;" transform="translate(126.6273193359375,35)" y="0" x="0" id="text-entity-Movie-a11ad02d-a88e-4f05-8f69-bdd1717d5215-attr-1-key" class="er entityLabel">PK</text><rect height="22" width="47.21253967285156" y="24" x="144.31500244140625" class="er attributeBoxOdd"/><text style="dominant-baseline: middle; font-size: 10.2px;" transform="translate(149.31500244140625,35)" y="0" x="0" id="text-entity-Movie-a11ad02d-a88e-4f05-8f69-bdd1717d5215-attr-1-comment" class="er entityLabel"/><rect height="22" width="54.095550537109375" y="46" x="0" class="er attributeBoxEven"/><text style="dominant-baseline: middle; font-size: 10.2px;" transform="translate(5,57)" y="0" x="0" id="text-entity-Movie-a11ad02d-a88e-4f05-8f69-bdd1717d5215-attr-2-type" class="er entityLabel">String</text><rect height="22" width="67.53176879882812" y="46" x="54.095550537109375" class="er attributeBoxEven"/><text style="dominant-baseline: middle; font-size: 10.2px;" transform="translate(59.095550537109375,57)" y="0" x="0" id="text-entity-Movie-a11ad02d-a88e-4f05-8f69-bdd1717d5215-attr-2-name" class="er entityLabel">title</text><rect height="22" width="22.68768310546875" y="46" x="121.6273193359375" class="er attributeBoxEven"/><text style="dominant-baseline: middle; font-size: 10.2px;" transform="translate(126.6273193359375,57)" y="0" x="0" id="text-entity-Movie-a11ad02d-a88e-4f05-8f69-bdd1717d5215-attr-2-key" class="er entityLabel"/><rect height="22" width="47.21253967285156" y="46" x="144.31500244140625" class="er attributeBoxEven"/><text style="dominant-baseline: middle; font-size: 10.2px;" transform="translate(149.31500244140625,57)" y="0" x="0" id="text-entity-Movie-a11ad02d-a88e-4f05-8f69-bdd1717d5215-attr-2-comment" class="er entityLabel"/><rect height="22" width="54.095550537109375" y="68" x="0" class="er attributeBoxOdd"/><text style="dominant-baseline: middle; font-size: 10.2px;" transform="translate(5,79)" y="0" x="0" id="text-entity-Movie-a11ad02d-a88e-4f05-8f69-bdd1717d5215-attr-3-type" class="er entityLabel">String</text><rect height="22" width="67.53176879882812" y="68" x="54.095550537109375" class="er attributeBoxOdd"/><text style="dominant-baseline: middle; font-size: 10.2px;" transform="translate(59.095550537109375,79)" y="0" x="0" id="text-entity-Movie-a11ad02d-a88e-4f05-8f69-bdd1717d5215-attr-3-name" class="er entityLabel">overview</text><rect height="22" width="22.68768310546875" y="68" x="121.6273193359375" class="er attributeBoxOdd"/><text style="dominant-baseline: middle; font-size: 10.2px;" transform="translate(126.6273193359375,79)" y="0" x="0" id="text-entity-Movie-a11ad02d-a88e-4f05-8f69-bdd1717d5215-attr-3-key" class="er entityLabel"/><rect height="22" width="47.21253967285156" y="68" x="144.31500244140625" class="er attributeBoxOdd"/><text style="dominant-baseline: middle; font-size: 10.2px;" transform="translate(149.31500244140625,79)" y="0" x="0" id="text-entity-Movie-a11ad02d-a88e-4f05-8f69-bdd1717d5215-attr-3-comment" class="er entityLabel">nullable</text><rect height="22" width="54.095550537109375" y="90" x="0" class="er attributeBoxEven"/><text style="dominant-baseline: middle; font-size: 10.2px;" transform="translate(5,101)" y="0" x="0" id="text-entity-Movie-a11ad02d-a88e-4f05-8f69-bdd1717d5215-attr-4-type" class="er entityLabel">String</text><rect height="22" width="67.53176879882812" y="90" x="54.095550537109375" class="er attributeBoxEven"/><text style="dominant-baseline: middle; font-size: 10.2px;" transform="translate(59.095550537109375,101)" y="0" x="0" id="text-entity-Movie-a11ad02d-a88e-4f05-8f69-bdd1717d5215-attr-4-name" class="er entityLabel">posterPath</text><rect height="22" width="22.68768310546875" y="90" x="121.6273193359375" class="er attributeBoxEven"/><text style="dominant-baseline: middle; font-size: 10.2px;" transform="translate(126.6273193359375,101)" y="0" x="0" id="text-entity-Movie-a11ad02d-a88e-4f05-8f69-bdd1717d5215-attr-4-key" class="er entityLabel"/><rect height="22" width="47.21253967285156" y="90" x="144.31500244140625" class="er attributeBoxEven"/><text style="dominant-baseline: middle; font-size: 10.2px;" transform="translate(149.31500244140625,101)" y="0" x="0" id="text-entity-Movie-a11ad02d-a88e-4f05-8f69-bdd1717d5215-attr-4-comment" class="er entityLabel">nullable</text><rect height="22" width="54.095550537109375" y="112" x="0" class="er attributeBoxOdd"/><text style="dominant-baseline: middle; font-size: 10.2px;" transform="translate(5,123)" y="0" x="0" id="text-entity-Movie-a11ad02d-a88e-4f05-8f69-bdd1717d5215-attr-5-type" class="er entityLabel">Int</text><rect height="22" width="67.53176879882812" y="112" x="54.095550537109375" class="er attributeBoxOdd"/><text style="dominant-baseline: middle; font-size: 10.2px;" transform="translate(59.095550537109375,123)" y="0" x="0" id="text-entity-Movie-a11ad02d-a88e-4f05-8f69-bdd1717d5215-attr-5-name" class="er entityLabel">runtime</text><rect height="22" width="22.68768310546875" y="112" x="121.6273193359375" class="er attributeBoxOdd"/><text style="dominant-baseline: middle; font-size: 10.2px;" transform="translate(126.6273193359375,123)" y="0" x="0" id="text-entity-Movie-a11ad02d-a88e-4f05-8f69-bdd1717d5215-attr-5-key" class="er entityLabel"/><rect height="22" width="47.21253967285156" y="112" x="144.31500244140625" class="er attributeBoxOdd"/><text style="dominant-baseline: middle; font-size: 10.2px;" transform="translate(149.31500244140625,123)" y="0" x="0" id="text-entity-Movie-a11ad02d-a88e-4f05-8f69-bdd1717d5215-attr-5-comment" class="er entityLabel">nullable</text><rect height="22" width="54.095550537109375" y="134" x="0" class="er attributeBoxEven"/><text style="dominant-baseline: middle; font-size: 10.2px;" transform="translate(5,145)" y="0" x="0" id="text-entity-Movie-a11ad02d-a88e-4f05-8f69-bdd1717d5215-attr-6-type" class="er entityLabel">BigInt</text><rect height="22" width="67.53176879882812" y="134" x="54.095550537109375" class="er attributeBoxEven"/><text style="dominant-baseline: middle; font-size: 10.2px;" transform="translate(59.095550537109375,145)" y="0" x="0" id="text-entity-Movie-a11ad02d-a88e-4f05-8f69-bdd1717d5215-attr-6-name" class="er entityLabel">budget</text><rect height="22" width="22.68768310546875" y="134" x="121.6273193359375" class="er attributeBoxEven"/><text style="dominant-baseline: middle; font-size: 10.2px;" transform="translate(126.6273193359375,145)" y="0" x="0" id="text-entity-Movie-a11ad02d-a88e-4f05-8f69-bdd1717d5215-attr-6-key" class="er entityLabel"/><rect height="22" width="47.21253967285156" y="134" x="144.31500244140625" class="er attributeBoxEven"/><text style="dominant-baseline: middle; font-size: 10.2px;" transform="translate(149.31500244140625,145)" y="0" x="0" id="text-entity-Movie-a11ad02d-a88e-4f05-8f69-bdd1717d5215-attr-6-comment" class="er entityLabel">nullable</text><rect height="22" width="54.095550537109375" y="156" x="0" class="er attributeBoxOdd"/><text style="dominant-baseline: middle; font-size: 10.2px;" transform="translate(5,167)" y="0" x="0" id="text-entity-Movie-a11ad02d-a88e-4f05-8f69-bdd1717d5215-attr-7-type" class="er entityLabel">BigInt</text><rect height="22" width="67.53176879882812" y="156" x="54.095550537109375" class="er attributeBoxOdd"/><text style="dominant-baseline: middle; font-size: 10.2px;" transform="translate(59.095550537109375,167)" y="0" x="0" id="text-entity-Movie-a11ad02d-a88e-4f05-8f69-bdd1717d5215-attr-7-name" class="er entityLabel">revenue</text><rect height="22" width="22.68768310546875" y="156" x="121.6273193359375" class="er attributeBoxOdd"/><text style="dominant-baseline: middle; font-size: 10.2px;" transform="translate(126.6273193359375,167)" y="0" x="0" id="text-entity-Movie-a11ad02d-a88e-4f05-8f69-bdd1717d5215-attr-7-key" class="er entityLabel"/><rect height="22" width="47.21253967285156" y="156" x="144.31500244140625" class="er attributeBoxOdd"/><text style="dominant-baseline: middle; font-size: 10.2px;" transform="translate(149.31500244140625,167)" y="0" x="0" id="text-entity-Movie-a11ad02d-a88e-4f05-8f69-bdd1717d5215-attr-7-comment" class="er entityLabel">nullable</text><rect height="22" width="54.095550537109375" y="178" x="0" class="er attributeBoxEven"/><text style="dominant-baseline: middle; font-size: 10.2px;" transform="translate(5,189)" y="0" x="0" id="text-entity-Movie-a11ad02d-a88e-4f05-8f69-bdd1717d5215-attr-8-type" class="er entityLabel">DateTime</text><rect height="22" width="67.53176879882812" y="178" x="54.095550537109375" class="er attributeBoxEven"/><text style="dominant-baseline: middle; font-size: 10.2px;" transform="translate(59.095550537109375,189)" y="0" x="0" id="text-entity-Movie-a11ad02d-a88e-4f05-8f69-bdd1717d5215-attr-8-name" class="er entityLabel">releaseDate</text><rect height="22" width="22.68768310546875" y="178" x="121.6273193359375" class="er attributeBoxEven"/><text style="dominant-baseline: middle; font-size: 10.2px;" transform="translate(126.6273193359375,189)" y="0" x="0" id="text-entity-Movie-a11ad02d-a88e-4f05-8f69-bdd1717d5215-attr-8-key" class="er entityLabel"/><rect height="22" width="47.21253967285156" y="178" x="144.31500244140625" class="er attributeBoxEven"/><text style="dominant-baseline: middle; font-size: 10.2px;" transform="translate(149.31500244140625,189)" y="0" x="0" id="text-entity-Movie-a11ad02d-a88e-4f05-8f69-bdd1717d5215-attr-8-comment" class="er entityLabel">nullable</text><rect height="22" width="54.095550537109375" y="200" x="0" class="er attributeBoxOdd"/><text style="dominant-baseline: middle; font-size: 10.2px;" transform="translate(5,211)" y="0" x="0" id="text-entity-Movie-a11ad02d-a88e-4f05-8f69-bdd1717d5215-attr-9-type" class="er entityLabel">Float</text><rect height="22" width="67.53176879882812" y="200" x="54.095550537109375" class="er attributeBoxOdd"/><text style="dominant-baseline: middle; font-size: 10.2px;" transform="translate(59.095550537109375,211)" y="0" x="0" id="text-entity-Movie-a11ad02d-a88e-4f05-8f69-bdd1717d5215-attr-9-name" class="er entityLabel">voteAverage</text><rect height="22" width="22.68768310546875" y="200" x="121.6273193359375" class="er attributeBoxOdd"/><text style="dominant-baseline: middle; font-size: 10.2px;" transform="translate(126.6273193359375,211)" y="0" x="0" id="text-entity-Movie-a11ad02d-a88e-4f05-8f69-bdd1717d5215-attr-9-key" class="er entityLabel"/><rect height="22" width="47.21253967285156" y="200" x="144.31500244140625" class="er attributeBoxOdd"/><text style="dominant-baseline: middle; font-size: 10.2px;" transform="translate(149.31500244140625,211)" y="0" x="0" id="text-entity-Movie-a11ad02d-a88e-4f05-8f69-bdd1717d5215-attr-9-comment" class="er entityLabel">nullable</text><rect height="22" width="54.095550537109375" y="222" x="0" class="er attributeBoxEven"/><text style="dominant-baseline: middle; font-size: 10.2px;" transform="translate(5,233)" y="0" x="0" id="text-entity-Movie-a11ad02d-a88e-4f05-8f69-bdd1717d5215-attr-10-type" class="er entityLabel">Int</text><rect height="22" width="67.53176879882812" y="222" x="54.095550537109375" class="er attributeBoxEven"/><text style="dominant-baseline: middle; font-size: 10.2px;" transform="translate(59.095550537109375,233)" y="0" x="0" id="text-entity-Movie-a11ad02d-a88e-4f05-8f69-bdd1717d5215-attr-10-name" class="er entityLabel">voteCount</text><rect height="22" width="22.68768310546875" y="222" x="121.6273193359375" class="er attributeBoxEven"/><text style="dominant-baseline: middle; font-size: 10.2px;" transform="translate(126.6273193359375,233)" y="0" x="0" id="text-entity-Movie-a11ad02d-a88e-4f05-8f69-bdd1717d5215-attr-10-key" class="er entityLabel"/><rect height="22" width="47.21253967285156" y="222" x="144.31500244140625" class="er attributeBoxEven"/><text style="dominant-baseline: middle; font-size: 10.2px;" transform="translate(149.31500244140625,233)" y="0" x="0" id="text-entity-Movie-a11ad02d-a88e-4f05-8f69-bdd1717d5215-attr-10-comment" class="er entityLabel">nullable</text><rect height="22" width="54.095550537109375" y="244" x="0" class="er attributeBoxOdd"/><text style="dominant-baseline: middle; font-size: 10.2px;" transform="translate(5,255)" y="0" x="0" id="text-entity-Movie-a11ad02d-a88e-4f05-8f69-bdd1717d5215-attr-11-type" class="er entityLabel">DateTime</text><rect height="22" width="67.53176879882812" y="244" x="54.095550537109375" class="er attributeBoxOdd"/><text style="dominant-baseline: middle; font-size: 10.2px;" transform="translate(59.095550537109375,255)" y="0" x="0" id="text-entity-Movie-a11ad02d-a88e-4f05-8f69-bdd1717d5215-attr-11-name" class="er entityLabel">createdAt</text><rect height="22" width="22.68768310546875" y="244" x="121.6273193359375" class="er attributeBoxOdd"/><text style="dominant-baseline: middle; font-size: 10.2px;" transform="translate(126.6273193359375,255)" y="0" x="0" id="text-entity-Movie-a11ad02d-a88e-4f05-8f69-bdd1717d5215-attr-11-key" class="er entityLabel"/><rect height="22" width="47.21253967285156" y="244" x="144.31500244140625" class="er attributeBoxOdd"/><text style="dominant-baseline: middle; font-size: 10.2px;" transform="translate(149.31500244140625,255)" y="0" x="0" id="text-entity-Movie-a11ad02d-a88e-4f05-8f69-bdd1717d5215-attr-11-comment" class="er entityLabel"/><rect height="22" width="54.095550537109375" y="266" x="0" class="er attributeBoxEven"/><text style="dominant-baseline: middle; font-size: 10.2px;" transform="translate(5,277)" y="0" x="0" id="text-entity-Movie-a11ad02d-a88e-4f05-8f69-bdd1717d5215-attr-12-type" class="er entityLabel">DateTime</text><rect height="22" width="67.53176879882812" y="266" x="54.095550537109375" class="er attributeBoxEven"/><text style="dominant-baseline: middle; font-size: 10.2px;" transform="translate(59.095550537109375,277)" y="0" x="0" id="text-entity-Movie-a11ad02d-a88e-4f05-8f69-bdd1717d5215-attr-12-name" class="er entityLabel">updatedAt</text><rect height="22" width="22.68768310546875" y="266" x="121.6273193359375" class="er attributeBoxEven"/><text style="dominant-baseline: middle; font-size: 10.2px;" transform="translate(126.6273193359375,277)" y="0" x="0" id="text-entity-Movie-a11ad02d-a88e-4f05-8f69-bdd1717d5215-attr-12-key" class="er entityLabel"/><rect height="22" width="47.21253967285156" y="266" x="144.31500244140625" class="er attributeBoxEven"/><text style="dominant-baseline: middle; font-size: 10.2px;" transform="translate(149.31500244140625,277)" y="0" x="0" id="text-entity-Movie-a11ad02d-a88e-4f05-8f69-bdd1717d5215-attr-12-comment" class="er entityLabel"/></g><g transform="translate(311.5275421142578,276 )" id="entity-Genre-b3483a4d-f217-47e6-8de6-e61c48721789"><rect height="112" width="135.38717651367188" y="0" x="0" class="er entityBox"/><text style="dominant-baseline: middle; text-anchor: middle; font-size: 12px;" transform="translate(67.69358825683594,12)" y="0" x="0" id="text-entity-Genre-b3483a4d-f217-47e6-8de6-e61c48721789" class="er entityLabel">Genre</text><rect height="22" width="54.095550537109375" y="24" x="0" class="er attributeBoxOdd"/><text style="dominant-baseline: middle; font-size: 10.2px;" transform="translate(5,35)" y="0" x="0" id="text-entity-Genre-b3483a4d-f217-47e6-8de6-e61c48721789-attr-1-type" class="er entityLabel">Int</text><rect height="22" width="58.60394287109375" y="24" x="54.095550537109375" class="er attributeBoxOdd"/><text style="dominant-baseline: middle; font-size: 10.2px;" transform="translate(59.095550537109375,35)" y="0" x="0" id="text-entity-Genre-b3483a4d-f217-47e6-8de6-e61c48721789-attr-1-name" class="er entityLabel">id</text><rect height="22" width="22.68768310546875" y="24" x="112.69949340820312" class="er attributeBoxOdd"/><text style="dominant-baseline: middle; font-size: 10.2px;" transform="translate(117.69949340820312,35)" y="0" x="0" id="text-entity-Genre-b3483a4d-f217-47e6-8de6-e61c48721789-attr-1-key" class="er entityLabel">PK</text><rect height="22" width="54.095550537109375" y="46" x="0" class="er attributeBoxEven"/><text style="dominant-baseline: middle; font-size: 10.2px;" transform="translate(5,57)" y="0" x="0" id="text-entity-Genre-b3483a4d-f217-47e6-8de6-e61c48721789-attr-2-type" class="er entityLabel">String</text><rect height="22" width="58.60394287109375" y="46" x="54.095550537109375" class="er attributeBoxEven"/><text style="dominant-baseline: middle; font-size: 10.2px;" transform="translate(59.095550537109375,57)" y="0" x="0" id="text-entity-Genre-b3483a4d-f217-47e6-8de6-e61c48721789-attr-2-name" class="er entityLabel">name</text><rect height="22" width="22.68768310546875" y="46" x="112.69949340820312" class="er attributeBoxEven"/><text style="dominant-baseline: middle; font-size: 10.2px;" transform="translate(117.69949340820312,57)" y="0" x="0" id="text-entity-Genre-b3483a4d-f217-47e6-8de6-e61c48721789-attr-2-key" class="er entityLabel"/><rect height="22" width="54.095550537109375" y="68" x="0" class="er attributeBoxOdd"/><text style="dominant-baseline: middle; font-size: 10.2px;" transform="translate(5,79)" y="0" x="0" id="text-entity-Genre-b3483a4d-f217-47e6-8de6-e61c48721789-attr-3-type" class="er entityLabel">DateTime</text><rect height="22" width="58.60394287109375" y="68" x="54.095550537109375" class="er attributeBoxOdd"/><text style="dominant-baseline: middle; font-size: 10.2px;" transform="translate(59.095550537109375,79)" y="0" x="0" id="text-entity-Genre-b3483a4d-f217-47e6-8de6-e61c48721789-attr-3-name" class="er entityLabel">createdAt</text><rect height="22" width="22.68768310546875" y="68" x="112.69949340820312" class="er attributeBoxOdd"/><text style="dominant-baseline: middle; font-size: 10.2px;" transform="translate(117.69949340820312,79)" y="0" x="0" id="text-entity-Genre-b3483a4d-f217-47e6-8de6-e61c48721789-attr-3-key" class="er entityLabel"/><rect height="22" width="54.095550537109375" y="90" x="0" class="er attributeBoxEven"/><text style="dominant-baseline: middle; font-size: 10.2px;" transform="translate(5,101)" y="0" x="0" id="text-entity-Genre-b3483a4d-f217-47e6-8de6-e61c48721789-attr-4-type" class="er entityLabel">DateTime</text><rect height="22" width="58.60394287109375" y="90" x="54.095550537109375" class="er attributeBoxEven"/><text style="dominant-baseline: middle; font-size: 10.2px;" transform="translate(59.095550537109375,101)" y="0" x="0" id="text-entity-Genre-b3483a4d-f217-47e6-8de6-e61c48721789-attr-4-name" class="er entityLabel">updatedAt</text><rect height="22" width="22.68768310546875" y="90" x="112.69949340820312" class="er attributeBoxEven"/><text style="dominant-baseline: middle; font-size: 10.2px;" transform="translate(117.69949340820312,101)" y="0" x="0" id="text-entity-Genre-b3483a4d-f217-47e6-8de6-e61c48721789-attr-4-key" class="er entityLabel"/></g><g transform="translate(191.14270401000977,20 )" id="entity-MovieGenre-35929e33-aed0-48f0-9c82-cebc15fa6b24"><rect height="68" width="112.69949340820312" y="0" x="0" class="er entityBox"/><text style="dominant-baseline: middle; text-anchor: middle; font-size: 12px;" transform="translate(56.34974670410156,12)" y="0" x="0" id="text-entity-MovieGenre-35929e33-aed0-48f0-9c82-cebc15fa6b24" class="er entityLabel">MovieGenre</text><rect height="22" width="54.095550537109375" y="24" x="0" class="er attributeBoxOdd"/><text style="dominant-baseline: middle; font-size: 10.2px;" transform="translate(5,35)" y="0" x="0" id="text-entity-MovieGenre-35929e33-aed0-48f0-9c82-cebc15fa6b24-attr-1-type" class="er entityLabel">DateTime</text><rect height="22" width="58.60394287109375" y="24" x="54.095550537109375" class="er attributeBoxOdd"/><text style="dominant-baseline: middle; font-size: 10.2px;" transform="translate(59.095550537109375,35)" y="0" x="0" id="text-entity-MovieGenre-35929e33-aed0-48f0-9c82-cebc15fa6b24-attr-1-name" class="er entityLabel">createdAt</text><rect height="22" width="54.095550537109375" y="46" x="0" class="er attributeBoxEven"/><text style="dominant-baseline: middle; font-size: 10.2px;" transform="translate(5,57)" y="0" x="0" id="text-entity-MovieGenre-35929e33-aed0-48f0-9c82-cebc15fa6b24-attr-2-type" class="er entityLabel">DateTime</text><rect height="22" width="58.60394287109375" y="46" x="54.095550537109375" class="er attributeBoxEven"/><text style="dominant-baseline: middle; font-size: 10.2px;" transform="translate(59.095550537109375,57)" y="0" x="0" id="text-entity-MovieGenre-35929e33-aed0-48f0-9c82-cebc15fa6b24-attr-2-name" class="er entityLabel">updatedAt</text></g><rect height="14.000007629394531" width="32.69921875" y="120.17787551879883" x="122.63079833984375" class="er relationshipLabelBox"/><text style="text-anchor: middle; dominant-baseline: middle; font-size: 12px;" y="127.1778793334961" x="138.98040771484375" id="rel1" class="er relationshipLabel">movie</text><rect height="14" width="30.7890625" y="160.40296936035156" x="355.7394104003906" class="er relationshipLabelBox"/><text style="text-anchor: middle; dominant-baseline: middle; font-size: 12px;" y="167.40296936035156" x="371.1339416503906" id="rel2" class="er relationshipLabel">genre</text></svg>