<svg aria-roledescription="er" viewBox="0 0 788.266845703125 540" style="max-width: 788.267px; background-color: white;" xmlns:xlink="http://www.w3.org/1999/xlink" xmlns="http://www.w3.org/2000/svg" width="100%" id="mermaid-0"><style>#mermaid-0{font-family:"trebuchet ms",verdana,arial,sans-serif;font-size:16px;fill:#000000;}#mermaid-0 .error-icon{fill:#552222;}#mermaid-0 .error-text{fill:#552222;stroke:#552222;}#mermaid-0 .edge-thickness-normal{stroke-width:2px;}#mermaid-0 .edge-thickness-thick{stroke-width:3.5px;}#mermaid-0 .edge-pattern-solid{stroke-dasharray:0;}#mermaid-0 .edge-pattern-dashed{stroke-dasharray:3;}#mermaid-0 .edge-pattern-dotted{stroke-dasharray:2;}#mermaid-0 .marker{fill:#666;stroke:#666;}#mermaid-0 .marker.cross{stroke:#666;}#mermaid-0 svg{font-family:"trebuchet ms",verdana,arial,sans-serif;font-size:16px;}#mermaid-0 .entityBox{fill:#eee;stroke:#999;}#mermaid-0 .attributeBoxOdd{fill:#ffffff;stroke:#999;}#mermaid-0 .attributeBoxEven{fill:#f2f2f2;stroke:#999;}#mermaid-0 .relationshipLabelBox{fill:hsl(-160, 0%, 93.3333333333%);opacity:0.7;background-color:hsl(-160, 0%, 93.3333333333%);}#mermaid-0 .relationshipLabelBox rect{opacity:0.5;}#mermaid-0 .relationshipLine{stroke:#666;}#mermaid-0 .entityTitleText{text-anchor:middle;font-size:18px;fill:#000000;}#mermaid-0 :root{--mermaid-font-family:"trebuchet ms",verdana,arial,sans-serif;}</style><g/><defs><marker orient="auto" markerHeight="18" markerWidth="18" refY="9" refX="0" id="ONLY_ONE_START"><path d="M9,0 L9,18 M15,0 L15,18" fill="none" stroke="gray"/></marker></defs><defs><marker orient="auto" markerHeight="18" markerWidth="18" refY="9" refX="18" id="ONLY_ONE_END"><path d="M3,0 L3,18 M9,0 L9,18" fill="none" stroke="gray"/></marker></defs><defs><marker orient="auto" markerHeight="18" markerWidth="30" refY="9" refX="0" id="ZERO_OR_ONE_START"><circle r="6" cy="9" cx="21" fill="white" stroke="gray"/><path d="M9,0 L9,18" fill="none" stroke="gray"/></marker></defs><defs><marker orient="auto" markerHeight="18" markerWidth="30" refY="9" refX="30" id="ZERO_OR_ONE_END"><circle r="6" cy="9" cx="9" fill="white" stroke="gray"/><path d="M21,0 L21,18" fill="none" stroke="gray"/></marker></defs><defs><marker orient="auto" markerHeight="36" markerWidth="45" refY="18" refX="18" id="ONE_OR_MORE_START"><path d="M0,18 Q 18,0 36,18 Q 18,36 0,18 M42,9 L42,27" fill="none" stroke="gray"/></marker></defs><defs><marker orient="auto" markerHeight="36" markerWidth="45" refY="18" refX="27" id="ONE_OR_MORE_END"><path d="M3,9 L3,27 M9,18 Q27,0 45,18 Q27,36 9,18" fill="none" stroke="gray"/></marker></defs><defs><marker orient="auto" markerHeight="36" markerWidth="57" refY="18" refX="18" id="ZERO_OR_MORE_START"><circle r="6" cy="18" cx="48" fill="white" stroke="gray"/><path d="M0,18 Q18,0 36,18 Q18,36 0,18" fill="none" stroke="gray"/></marker></defs><defs><marker orient="auto" markerHeight="36" markerWidth="57" refY="18" refX="39" id="ZERO_OR_MORE_END"><circle r="6" cy="18" cx="9" fill="white" stroke="gray"/><path d="M21,18 Q39,0 57,18 Q39,36 21,18" fill="none" stroke="gray"/></marker></defs><path style="stroke: gray; fill: none;" marker-start="url(#ZERO_OR_MORE_START)" marker-end="url(#ONLY_ONE_END)" d="M133.79880905151367,110L148.06938552856445,122C162.33996200561523,134,190.8811149597168,158,211.1458428700765,178.82773122064228C231.4105707804362,199.65546244128458,243.39887364705405,217.31092488256914,249.39302508036295,226.13865610321145L255.38717651367188,234.96638732385372" class="er relationshipLine"/><path style="stroke: gray; fill: none;" marker-start="url(#ZERO_OR_MORE_START)" marker-end="url(#ONLY_ONE_END)" d="M91.54621368984006,110L90.90410945100604,122C90.26200521217201,134,88.97779673450397,158,88.33569249566995,193C87.69358825683594,228,87.69358825683594,274,87.69358825683594,297L87.69358825683594,320" class="er relationshipLine"/><path style="stroke: gray; fill: none;" marker-start="url(#ZERO_OR_MORE_START)" marker-end="url(#ONLY_ONE_END)" d="M726.9883098242418,132L730.9191274343048,140.33333333333334C734.8499450443675,148.66666666666666,742.7115802644934,165.33333333333334,734.7867277714635,196.66666666666666C726.8618752784336,228,703.1505350722479,274,691.2948649691552,297L679.4391948660624,320" class="er relationshipLine"/><path style="stroke: gray; fill: none;" marker-start="url(#ZERO_OR_MORE_START)" marker-end="url(#ONLY_ONE_END)" d="M664.8105650847813,132L659.4887421086149,140.33333333333334C654.1669191324486,148.66666666666666,643.5232731801159,165.33333333333334,607.2072987706406,195.00941879748584C570.8913243611654,224.68550426163833,508.90302149454754,267.37100852327666,477.9088700612386,288.7137606540958L446.9147186279297,310.05651278491496" class="er relationshipLine"/><path style="stroke: gray; fill: none;" marker-start="url(#ZERO_OR_MORE_START)" marker-end="url(#ONLY_ONE_END)" d="M468.8445358276367,130.47196748581592L479.51705106099445,139.0599729048466C490.18956629435223,147.64797832387728,511.5345967610677,164.82398916193864,536.1604755506482,196.41199458096932C560.7863543402289,228,588.6930814526745,274,602.6464450088973,297L616.5998085651202,320" class="er relationshipLine"/><path style="stroke: gray; fill: none;" marker-start="url(#ZERO_OR_MORE_START)" marker-end="url(#ONLY_ONE_END)" d="M374.7358532311781,132L370.8050356211152,140.33333333333334C366.87421801105233,148.66666666666666,359.0125827909266,165.33333333333334,355.08176518086367,182C351.1509475708008,198.66666666666666,351.1509475708008,215.33333333333334,351.1509475708008,223.66666666666666L351.1509475708008,232" class="er relationshipLine"/><g transform="translate(255.38717651367188,232 )" id="entity-Movie-3688ac49-b476-4bca-acc7-f51ab31dd947"><rect height="288" width="191.5275421142578" y="0" x="0" class="er entityBox"/><text style="dominant-baseline: middle; text-anchor: middle; font-size: 12px;" transform="translate(95.7637710571289,12)" y="0" x="0" id="text-entity-Movie-3688ac49-b476-4bca-acc7-f51ab31dd947" class="er entityLabel">Movie</text><rect height="22" width="54.095550537109375" y="24" x="0" class="er attributeBoxOdd"/><text style="dominant-baseline: middle; font-size: 10.2px;" transform="translate(5,35)" y="0" x="0" id="text-entity-Movie-3688ac49-b476-4bca-acc7-f51ab31dd947-attr-1-type" class="er entityLabel">Int</text><rect height="22" width="67.53176879882812" y="24" x="54.095550537109375" class="er attributeBoxOdd"/><text style="dominant-baseline: middle; font-size: 10.2px;" transform="translate(59.095550537109375,35)" y="0" x="0" id="text-entity-Movie-3688ac49-b476-4bca-acc7-f51ab31dd947-attr-1-name" class="er entityLabel">id</text><rect height="22" width="22.68768310546875" y="24" x="121.6273193359375" class="er attributeBoxOdd"/><text style="dominant-baseline: middle; font-size: 10.2px;" transform="translate(126.6273193359375,35)" y="0" x="0" id="text-entity-Movie-3688ac49-b476-4bca-acc7-f51ab31dd947-attr-1-key" class="er entityLabel">PK</text><rect height="22" width="47.21253967285156" y="24" x="144.31500244140625" class="er attributeBoxOdd"/><text style="dominant-baseline: middle; font-size: 10.2px;" transform="translate(149.31500244140625,35)" y="0" x="0" id="text-entity-Movie-3688ac49-b476-4bca-acc7-f51ab31dd947-attr-1-comment" class="er entityLabel"/><rect height="22" width="54.095550537109375" y="46" x="0" class="er attributeBoxEven"/><text style="dominant-baseline: middle; font-size: 10.2px;" transform="translate(5,57)" y="0" x="0" id="text-entity-Movie-3688ac49-b476-4bca-acc7-f51ab31dd947-attr-2-type" class="er entityLabel">String</text><rect height="22" width="67.53176879882812" y="46" x="54.095550537109375" class="er attributeBoxEven"/><text style="dominant-baseline: middle; font-size: 10.2px;" transform="translate(59.095550537109375,57)" y="0" x="0" id="text-entity-Movie-3688ac49-b476-4bca-acc7-f51ab31dd947-attr-2-name" class="er entityLabel">title</text><rect height="22" width="22.68768310546875" y="46" x="121.6273193359375" class="er attributeBoxEven"/><text style="dominant-baseline: middle; font-size: 10.2px;" transform="translate(126.6273193359375,57)" y="0" x="0" id="text-entity-Movie-3688ac49-b476-4bca-acc7-f51ab31dd947-attr-2-key" class="er entityLabel"/><rect height="22" width="47.21253967285156" y="46" x="144.31500244140625" class="er attributeBoxEven"/><text style="dominant-baseline: middle; font-size: 10.2px;" transform="translate(149.31500244140625,57)" y="0" x="0" id="text-entity-Movie-3688ac49-b476-4bca-acc7-f51ab31dd947-attr-2-comment" class="er entityLabel"/><rect height="22" width="54.095550537109375" y="68" x="0" class="er attributeBoxOdd"/><text style="dominant-baseline: middle; font-size: 10.2px;" transform="translate(5,79)" y="0" x="0" id="text-entity-Movie-3688ac49-b476-4bca-acc7-f51ab31dd947-attr-3-type" class="er entityLabel">String</text><rect height="22" width="67.53176879882812" y="68" x="54.095550537109375" class="er attributeBoxOdd"/><text style="dominant-baseline: middle; font-size: 10.2px;" transform="translate(59.095550537109375,79)" y="0" x="0" id="text-entity-Movie-3688ac49-b476-4bca-acc7-f51ab31dd947-attr-3-name" class="er entityLabel">overview</text><rect height="22" width="22.68768310546875" y="68" x="121.6273193359375" class="er attributeBoxOdd"/><text style="dominant-baseline: middle; font-size: 10.2px;" transform="translate(126.6273193359375,79)" y="0" x="0" id="text-entity-Movie-3688ac49-b476-4bca-acc7-f51ab31dd947-attr-3-key" class="er entityLabel"/><rect height="22" width="47.21253967285156" y="68" x="144.31500244140625" class="er attributeBoxOdd"/><text style="dominant-baseline: middle; font-size: 10.2px;" transform="translate(149.31500244140625,79)" y="0" x="0" id="text-entity-Movie-3688ac49-b476-4bca-acc7-f51ab31dd947-attr-3-comment" class="er entityLabel">nullable</text><rect height="22" width="54.095550537109375" y="90" x="0" class="er attributeBoxEven"/><text style="dominant-baseline: middle; font-size: 10.2px;" transform="translate(5,101)" y="0" x="0" id="text-entity-Movie-3688ac49-b476-4bca-acc7-f51ab31dd947-attr-4-type" class="er entityLabel">String</text><rect height="22" width="67.53176879882812" y="90" x="54.095550537109375" class="er attributeBoxEven"/><text style="dominant-baseline: middle; font-size: 10.2px;" transform="translate(59.095550537109375,101)" y="0" x="0" id="text-entity-Movie-3688ac49-b476-4bca-acc7-f51ab31dd947-attr-4-name" class="er entityLabel">posterPath</text><rect height="22" width="22.68768310546875" y="90" x="121.6273193359375" class="er attributeBoxEven"/><text style="dominant-baseline: middle; font-size: 10.2px;" transform="translate(126.6273193359375,101)" y="0" x="0" id="text-entity-Movie-3688ac49-b476-4bca-acc7-f51ab31dd947-attr-4-key" class="er entityLabel"/><rect height="22" width="47.21253967285156" y="90" x="144.31500244140625" class="er attributeBoxEven"/><text style="dominant-baseline: middle; font-size: 10.2px;" transform="translate(149.31500244140625,101)" y="0" x="0" id="text-entity-Movie-3688ac49-b476-4bca-acc7-f51ab31dd947-attr-4-comment" class="er entityLabel">nullable</text><rect height="22" width="54.095550537109375" y="112" x="0" class="er attributeBoxOdd"/><text style="dominant-baseline: middle; font-size: 10.2px;" transform="translate(5,123)" y="0" x="0" id="text-entity-Movie-3688ac49-b476-4bca-acc7-f51ab31dd947-attr-5-type" class="er entityLabel">Int</text><rect height="22" width="67.53176879882812" y="112" x="54.095550537109375" class="er attributeBoxOdd"/><text style="dominant-baseline: middle; font-size: 10.2px;" transform="translate(59.095550537109375,123)" y="0" x="0" id="text-entity-Movie-3688ac49-b476-4bca-acc7-f51ab31dd947-attr-5-name" class="er entityLabel">runtime</text><rect height="22" width="22.68768310546875" y="112" x="121.6273193359375" class="er attributeBoxOdd"/><text style="dominant-baseline: middle; font-size: 10.2px;" transform="translate(126.6273193359375,123)" y="0" x="0" id="text-entity-Movie-3688ac49-b476-4bca-acc7-f51ab31dd947-attr-5-key" class="er entityLabel"/><rect height="22" width="47.21253967285156" y="112" x="144.31500244140625" class="er attributeBoxOdd"/><text style="dominant-baseline: middle; font-size: 10.2px;" transform="translate(149.31500244140625,123)" y="0" x="0" id="text-entity-Movie-3688ac49-b476-4bca-acc7-f51ab31dd947-attr-5-comment" class="er entityLabel">nullable</text><rect height="22" width="54.095550537109375" y="134" x="0" class="er attributeBoxEven"/><text style="dominant-baseline: middle; font-size: 10.2px;" transform="translate(5,145)" y="0" x="0" id="text-entity-Movie-3688ac49-b476-4bca-acc7-f51ab31dd947-attr-6-type" class="er entityLabel">BigInt</text><rect height="22" width="67.53176879882812" y="134" x="54.095550537109375" class="er attributeBoxEven"/><text style="dominant-baseline: middle; font-size: 10.2px;" transform="translate(59.095550537109375,145)" y="0" x="0" id="text-entity-Movie-3688ac49-b476-4bca-acc7-f51ab31dd947-attr-6-name" class="er entityLabel">budget</text><rect height="22" width="22.68768310546875" y="134" x="121.6273193359375" class="er attributeBoxEven"/><text style="dominant-baseline: middle; font-size: 10.2px;" transform="translate(126.6273193359375,145)" y="0" x="0" id="text-entity-Movie-3688ac49-b476-4bca-acc7-f51ab31dd947-attr-6-key" class="er entityLabel"/><rect height="22" width="47.21253967285156" y="134" x="144.31500244140625" class="er attributeBoxEven"/><text style="dominant-baseline: middle; font-size: 10.2px;" transform="translate(149.31500244140625,145)" y="0" x="0" id="text-entity-Movie-3688ac49-b476-4bca-acc7-f51ab31dd947-attr-6-comment" class="er entityLabel">nullable</text><rect height="22" width="54.095550537109375" y="156" x="0" class="er attributeBoxOdd"/><text style="dominant-baseline: middle; font-size: 10.2px;" transform="translate(5,167)" y="0" x="0" id="text-entity-Movie-3688ac49-b476-4bca-acc7-f51ab31dd947-attr-7-type" class="er entityLabel">BigInt</text><rect height="22" width="67.53176879882812" y="156" x="54.095550537109375" class="er attributeBoxOdd"/><text style="dominant-baseline: middle; font-size: 10.2px;" transform="translate(59.095550537109375,167)" y="0" x="0" id="text-entity-Movie-3688ac49-b476-4bca-acc7-f51ab31dd947-attr-7-name" class="er entityLabel">revenue</text><rect height="22" width="22.68768310546875" y="156" x="121.6273193359375" class="er attributeBoxOdd"/><text style="dominant-baseline: middle; font-size: 10.2px;" transform="translate(126.6273193359375,167)" y="0" x="0" id="text-entity-Movie-3688ac49-b476-4bca-acc7-f51ab31dd947-attr-7-key" class="er entityLabel"/><rect height="22" width="47.21253967285156" y="156" x="144.31500244140625" class="er attributeBoxOdd"/><text style="dominant-baseline: middle; font-size: 10.2px;" transform="translate(149.31500244140625,167)" y="0" x="0" id="text-entity-Movie-3688ac49-b476-4bca-acc7-f51ab31dd947-attr-7-comment" class="er entityLabel">nullable</text><rect height="22" width="54.095550537109375" y="178" x="0" class="er attributeBoxEven"/><text style="dominant-baseline: middle; font-size: 10.2px;" transform="translate(5,189)" y="0" x="0" id="text-entity-Movie-3688ac49-b476-4bca-acc7-f51ab31dd947-attr-8-type" class="er entityLabel">DateTime</text><rect height="22" width="67.53176879882812" y="178" x="54.095550537109375" class="er attributeBoxEven"/><text style="dominant-baseline: middle; font-size: 10.2px;" transform="translate(59.095550537109375,189)" y="0" x="0" id="text-entity-Movie-3688ac49-b476-4bca-acc7-f51ab31dd947-attr-8-name" class="er entityLabel">releaseDate</text><rect height="22" width="22.68768310546875" y="178" x="121.6273193359375" class="er attributeBoxEven"/><text style="dominant-baseline: middle; font-size: 10.2px;" transform="translate(126.6273193359375,189)" y="0" x="0" id="text-entity-Movie-3688ac49-b476-4bca-acc7-f51ab31dd947-attr-8-key" class="er entityLabel"/><rect height="22" width="47.21253967285156" y="178" x="144.31500244140625" class="er attributeBoxEven"/><text style="dominant-baseline: middle; font-size: 10.2px;" transform="translate(149.31500244140625,189)" y="0" x="0" id="text-entity-Movie-3688ac49-b476-4bca-acc7-f51ab31dd947-attr-8-comment" class="er entityLabel">nullable</text><rect height="22" width="54.095550537109375" y="200" x="0" class="er attributeBoxOdd"/><text style="dominant-baseline: middle; font-size: 10.2px;" transform="translate(5,211)" y="0" x="0" id="text-entity-Movie-3688ac49-b476-4bca-acc7-f51ab31dd947-attr-9-type" class="er entityLabel">Float</text><rect height="22" width="67.53176879882812" y="200" x="54.095550537109375" class="er attributeBoxOdd"/><text style="dominant-baseline: middle; font-size: 10.2px;" transform="translate(59.095550537109375,211)" y="0" x="0" id="text-entity-Movie-3688ac49-b476-4bca-acc7-f51ab31dd947-attr-9-name" class="er entityLabel">voteAverage</text><rect height="22" width="22.68768310546875" y="200" x="121.6273193359375" class="er attributeBoxOdd"/><text style="dominant-baseline: middle; font-size: 10.2px;" transform="translate(126.6273193359375,211)" y="0" x="0" id="text-entity-Movie-3688ac49-b476-4bca-acc7-f51ab31dd947-attr-9-key" class="er entityLabel"/><rect height="22" width="47.21253967285156" y="200" x="144.31500244140625" class="er attributeBoxOdd"/><text style="dominant-baseline: middle; font-size: 10.2px;" transform="translate(149.31500244140625,211)" y="0" x="0" id="text-entity-Movie-3688ac49-b476-4bca-acc7-f51ab31dd947-attr-9-comment" class="er entityLabel">nullable</text><rect height="22" width="54.095550537109375" y="222" x="0" class="er attributeBoxEven"/><text style="dominant-baseline: middle; font-size: 10.2px;" transform="translate(5,233)" y="0" x="0" id="text-entity-Movie-3688ac49-b476-4bca-acc7-f51ab31dd947-attr-10-type" class="er entityLabel">Int</text><rect height="22" width="67.53176879882812" y="222" x="54.095550537109375" class="er attributeBoxEven"/><text style="dominant-baseline: middle; font-size: 10.2px;" transform="translate(59.095550537109375,233)" y="0" x="0" id="text-entity-Movie-3688ac49-b476-4bca-acc7-f51ab31dd947-attr-10-name" class="er entityLabel">voteCount</text><rect height="22" width="22.68768310546875" y="222" x="121.6273193359375" class="er attributeBoxEven"/><text style="dominant-baseline: middle; font-size: 10.2px;" transform="translate(126.6273193359375,233)" y="0" x="0" id="text-entity-Movie-3688ac49-b476-4bca-acc7-f51ab31dd947-attr-10-key" class="er entityLabel"/><rect height="22" width="47.21253967285156" y="222" x="144.31500244140625" class="er attributeBoxEven"/><text style="dominant-baseline: middle; font-size: 10.2px;" transform="translate(149.31500244140625,233)" y="0" x="0" id="text-entity-Movie-3688ac49-b476-4bca-acc7-f51ab31dd947-attr-10-comment" class="er entityLabel">nullable</text><rect height="22" width="54.095550537109375" y="244" x="0" class="er attributeBoxOdd"/><text style="dominant-baseline: middle; font-size: 10.2px;" transform="translate(5,255)" y="0" x="0" id="text-entity-Movie-3688ac49-b476-4bca-acc7-f51ab31dd947-attr-11-type" class="er entityLabel">DateTime</text><rect height="22" width="67.53176879882812" y="244" x="54.095550537109375" class="er attributeBoxOdd"/><text style="dominant-baseline: middle; font-size: 10.2px;" transform="translate(59.095550537109375,255)" y="0" x="0" id="text-entity-Movie-3688ac49-b476-4bca-acc7-f51ab31dd947-attr-11-name" class="er entityLabel">createdAt</text><rect height="22" width="22.68768310546875" y="244" x="121.6273193359375" class="er attributeBoxOdd"/><text style="dominant-baseline: middle; font-size: 10.2px;" transform="translate(126.6273193359375,255)" y="0" x="0" id="text-entity-Movie-3688ac49-b476-4bca-acc7-f51ab31dd947-attr-11-key" class="er entityLabel"/><rect height="22" width="47.21253967285156" y="244" x="144.31500244140625" class="er attributeBoxOdd"/><text style="dominant-baseline: middle; font-size: 10.2px;" transform="translate(149.31500244140625,255)" y="0" x="0" id="text-entity-Movie-3688ac49-b476-4bca-acc7-f51ab31dd947-attr-11-comment" class="er entityLabel"/><rect height="22" width="54.095550537109375" y="266" x="0" class="er attributeBoxEven"/><text style="dominant-baseline: middle; font-size: 10.2px;" transform="translate(5,277)" y="0" x="0" id="text-entity-Movie-3688ac49-b476-4bca-acc7-f51ab31dd947-attr-12-type" class="er entityLabel">DateTime</text><rect height="22" width="67.53176879882812" y="266" x="54.095550537109375" class="er attributeBoxEven"/><text style="dominant-baseline: middle; font-size: 10.2px;" transform="translate(59.095550537109375,277)" y="0" x="0" id="text-entity-Movie-3688ac49-b476-4bca-acc7-f51ab31dd947-attr-12-name" class="er entityLabel">updatedAt</text><rect height="22" width="22.68768310546875" y="266" x="121.6273193359375" class="er attributeBoxEven"/><text style="dominant-baseline: middle; font-size: 10.2px;" transform="translate(126.6273193359375,277)" y="0" x="0" id="text-entity-Movie-3688ac49-b476-4bca-acc7-f51ab31dd947-attr-12-key" class="er entityLabel"/><rect height="22" width="47.21253967285156" y="266" x="144.31500244140625" class="er attributeBoxEven"/><text style="dominant-baseline: middle; font-size: 10.2px;" transform="translate(149.31500244140625,277)" y="0" x="0" id="text-entity-Movie-3688ac49-b476-4bca-acc7-f51ab31dd947-attr-12-comment" class="er entityLabel"/></g><g transform="translate(20,320 )" id="entity-Genre-b35647c9-77c9-4e2e-b37a-43065066e509"><rect height="112" width="135.38717651367188" y="0" x="0" class="er entityBox"/><text style="dominant-baseline: middle; text-anchor: middle; font-size: 12px;" transform="translate(67.69358825683594,12)" y="0" x="0" id="text-entity-Genre-b35647c9-77c9-4e2e-b37a-43065066e509" class="er entityLabel">Genre</text><rect height="22" width="54.095550537109375" y="24" x="0" class="er attributeBoxOdd"/><text style="dominant-baseline: middle; font-size: 10.2px;" transform="translate(5,35)" y="0" x="0" id="text-entity-Genre-b35647c9-77c9-4e2e-b37a-43065066e509-attr-1-type" class="er entityLabel">Int</text><rect height="22" width="58.60394287109375" y="24" x="54.095550537109375" class="er attributeBoxOdd"/><text style="dominant-baseline: middle; font-size: 10.2px;" transform="translate(59.095550537109375,35)" y="0" x="0" id="text-entity-Genre-b35647c9-77c9-4e2e-b37a-43065066e509-attr-1-name" class="er entityLabel">id</text><rect height="22" width="22.68768310546875" y="24" x="112.69949340820312" class="er attributeBoxOdd"/><text style="dominant-baseline: middle; font-size: 10.2px;" transform="translate(117.69949340820312,35)" y="0" x="0" id="text-entity-Genre-b35647c9-77c9-4e2e-b37a-43065066e509-attr-1-key" class="er entityLabel">PK</text><rect height="22" width="54.095550537109375" y="46" x="0" class="er attributeBoxEven"/><text style="dominant-baseline: middle; font-size: 10.2px;" transform="translate(5,57)" y="0" x="0" id="text-entity-Genre-b35647c9-77c9-4e2e-b37a-43065066e509-attr-2-type" class="er entityLabel">String</text><rect height="22" width="58.60394287109375" y="46" x="54.095550537109375" class="er attributeBoxEven"/><text style="dominant-baseline: middle; font-size: 10.2px;" transform="translate(59.095550537109375,57)" y="0" x="0" id="text-entity-Genre-b35647c9-77c9-4e2e-b37a-43065066e509-attr-2-name" class="er entityLabel">name</text><rect height="22" width="22.68768310546875" y="46" x="112.69949340820312" class="er attributeBoxEven"/><text style="dominant-baseline: middle; font-size: 10.2px;" transform="translate(117.69949340820312,57)" y="0" x="0" id="text-entity-Genre-b35647c9-77c9-4e2e-b37a-43065066e509-attr-2-key" class="er entityLabel"/><rect height="22" width="54.095550537109375" y="68" x="0" class="er attributeBoxOdd"/><text style="dominant-baseline: middle; font-size: 10.2px;" transform="translate(5,79)" y="0" x="0" id="text-entity-Genre-b35647c9-77c9-4e2e-b37a-43065066e509-attr-3-type" class="er entityLabel">DateTime</text><rect height="22" width="58.60394287109375" y="68" x="54.095550537109375" class="er attributeBoxOdd"/><text style="dominant-baseline: middle; font-size: 10.2px;" transform="translate(59.095550537109375,79)" y="0" x="0" id="text-entity-Genre-b35647c9-77c9-4e2e-b37a-43065066e509-attr-3-name" class="er entityLabel">createdAt</text><rect height="22" width="22.68768310546875" y="68" x="112.69949340820312" class="er attributeBoxOdd"/><text style="dominant-baseline: middle; font-size: 10.2px;" transform="translate(117.69949340820312,79)" y="0" x="0" id="text-entity-Genre-b35647c9-77c9-4e2e-b37a-43065066e509-attr-3-key" class="er entityLabel"/><rect height="22" width="54.095550537109375" y="90" x="0" class="er attributeBoxEven"/><text style="dominant-baseline: middle; font-size: 10.2px;" transform="translate(5,101)" y="0" x="0" id="text-entity-Genre-b35647c9-77c9-4e2e-b37a-43065066e509-attr-4-type" class="er entityLabel">DateTime</text><rect height="22" width="58.60394287109375" y="90" x="54.095550537109375" class="er attributeBoxEven"/><text style="dominant-baseline: middle; font-size: 10.2px;" transform="translate(59.095550537109375,101)" y="0" x="0" id="text-entity-Genre-b35647c9-77c9-4e2e-b37a-43065066e509-attr-4-name" class="er entityLabel">updatedAt</text><rect height="22" width="22.68768310546875" y="90" x="112.69949340820312" class="er attributeBoxEven"/><text style="dominant-baseline: middle; font-size: 10.2px;" transform="translate(117.69949340820312,101)" y="0" x="0" id="text-entity-Genre-b35647c9-77c9-4e2e-b37a-43065066e509-attr-4-key" class="er entityLabel"/></g><g transform="translate(37.01576232910156,42 )" id="entity-MovieGenre-54524f53-e096-4057-887b-de6a0221af7e"><rect height="68" width="112.69949340820312" y="0" x="0" class="er entityBox"/><text style="dominant-baseline: middle; text-anchor: middle; font-size: 12px;" transform="translate(56.34974670410156,12)" y="0" x="0" id="text-entity-MovieGenre-54524f53-e096-4057-887b-de6a0221af7e" class="er entityLabel">MovieGenre</text><rect height="22" width="54.095550537109375" y="24" x="0" class="er attributeBoxOdd"/><text style="dominant-baseline: middle; font-size: 10.2px;" transform="translate(5,35)" y="0" x="0" id="text-entity-MovieGenre-54524f53-e096-4057-887b-de6a0221af7e-attr-1-type" class="er entityLabel">DateTime</text><rect height="22" width="58.60394287109375" y="24" x="54.095550537109375" class="er attributeBoxOdd"/><text style="dominant-baseline: middle; font-size: 10.2px;" transform="translate(59.095550537109375,35)" y="0" x="0" id="text-entity-MovieGenre-54524f53-e096-4057-887b-de6a0221af7e-attr-1-name" class="er entityLabel">createdAt</text><rect height="22" width="54.095550537109375" y="46" x="0" class="er attributeBoxEven"/><text style="dominant-baseline: middle; font-size: 10.2px;" transform="translate(5,57)" y="0" x="0" id="text-entity-MovieGenre-54524f53-e096-4057-887b-de6a0221af7e-attr-2-type" class="er entityLabel">DateTime</text><rect height="22" width="58.60394287109375" y="46" x="54.095550537109375" class="er attributeBoxEven"/><text style="dominant-baseline: middle; font-size: 10.2px;" transform="translate(59.095550537109375,57)" y="0" x="0" id="text-entity-MovieGenre-54524f53-e096-4057-887b-de6a0221af7e-attr-2-name" class="er entityLabel">updatedAt</text></g><g transform="translate(582.8796272277832,320 )" id="entity-Person-799c1179-05e7-46d6-95ac-ecfe020e15d6"><rect height="112" width="135.38717651367188" y="0" x="0" class="er entityBox"/><text style="dominant-baseline: middle; text-anchor: middle; font-size: 12px;" transform="translate(67.69358825683594,12)" y="0" x="0" id="text-entity-Person-799c1179-05e7-46d6-95ac-ecfe020e15d6" class="er entityLabel">Person</text><rect height="22" width="54.095550537109375" y="24" x="0" class="er attributeBoxOdd"/><text style="dominant-baseline: middle; font-size: 10.2px;" transform="translate(5,35)" y="0" x="0" id="text-entity-Person-799c1179-05e7-46d6-95ac-ecfe020e15d6-attr-1-type" class="er entityLabel">Int</text><rect height="22" width="58.60394287109375" y="24" x="54.095550537109375" class="er attributeBoxOdd"/><text style="dominant-baseline: middle; font-size: 10.2px;" transform="translate(59.095550537109375,35)" y="0" x="0" id="text-entity-Person-799c1179-05e7-46d6-95ac-ecfe020e15d6-attr-1-name" class="er entityLabel">id</text><rect height="22" width="22.68768310546875" y="24" x="112.69949340820312" class="er attributeBoxOdd"/><text style="dominant-baseline: middle; font-size: 10.2px;" transform="translate(117.69949340820312,35)" y="0" x="0" id="text-entity-Person-799c1179-05e7-46d6-95ac-ecfe020e15d6-attr-1-key" class="er entityLabel">PK</text><rect height="22" width="54.095550537109375" y="46" x="0" class="er attributeBoxEven"/><text style="dominant-baseline: middle; font-size: 10.2px;" transform="translate(5,57)" y="0" x="0" id="text-entity-Person-799c1179-05e7-46d6-95ac-ecfe020e15d6-attr-2-type" class="er entityLabel">String</text><rect height="22" width="58.60394287109375" y="46" x="54.095550537109375" class="er attributeBoxEven"/><text style="dominant-baseline: middle; font-size: 10.2px;" transform="translate(59.095550537109375,57)" y="0" x="0" id="text-entity-Person-799c1179-05e7-46d6-95ac-ecfe020e15d6-attr-2-name" class="er entityLabel">name</text><rect height="22" width="22.68768310546875" y="46" x="112.69949340820312" class="er attributeBoxEven"/><text style="dominant-baseline: middle; font-size: 10.2px;" transform="translate(117.69949340820312,57)" y="0" x="0" id="text-entity-Person-799c1179-05e7-46d6-95ac-ecfe020e15d6-attr-2-key" class="er entityLabel"/><rect height="22" width="54.095550537109375" y="68" x="0" class="er attributeBoxOdd"/><text style="dominant-baseline: middle; font-size: 10.2px;" transform="translate(5,79)" y="0" x="0" id="text-entity-Person-799c1179-05e7-46d6-95ac-ecfe020e15d6-attr-3-type" class="er entityLabel">DateTime</text><rect height="22" width="58.60394287109375" y="68" x="54.095550537109375" class="er attributeBoxOdd"/><text style="dominant-baseline: middle; font-size: 10.2px;" transform="translate(59.095550537109375,79)" y="0" x="0" id="text-entity-Person-799c1179-05e7-46d6-95ac-ecfe020e15d6-attr-3-name" class="er entityLabel">createdAt</text><rect height="22" width="22.68768310546875" y="68" x="112.69949340820312" class="er attributeBoxOdd"/><text style="dominant-baseline: middle; font-size: 10.2px;" transform="translate(117.69949340820312,79)" y="0" x="0" id="text-entity-Person-799c1179-05e7-46d6-95ac-ecfe020e15d6-attr-3-key" class="er entityLabel"/><rect height="22" width="54.095550537109375" y="90" x="0" class="er attributeBoxEven"/><text style="dominant-baseline: middle; font-size: 10.2px;" transform="translate(5,101)" y="0" x="0" id="text-entity-Person-799c1179-05e7-46d6-95ac-ecfe020e15d6-attr-4-type" class="er entityLabel">DateTime</text><rect height="22" width="58.60394287109375" y="90" x="54.095550537109375" class="er attributeBoxEven"/><text style="dominant-baseline: middle; font-size: 10.2px;" transform="translate(59.095550537109375,101)" y="0" x="0" id="text-entity-Person-799c1179-05e7-46d6-95ac-ecfe020e15d6-attr-4-name" class="er entityLabel">updatedAt</text><rect height="22" width="22.68768310546875" y="90" x="112.69949340820312" class="er attributeBoxEven"/><text style="dominant-baseline: middle; font-size: 10.2px;" transform="translate(117.69949340820312,101)" y="0" x="0" id="text-entity-Person-799c1179-05e7-46d6-95ac-ecfe020e15d6-attr-4-key" class="er entityLabel"/></g><g transform="translate(632.8796272277832,20 )" id="entity-Cast-eb108fdd-c5bc-4d98-a865-0b39fd06d8e9"><rect height="112" width="135.38717651367188" y="0" x="0" class="er entityBox"/><text style="dominant-baseline: middle; text-anchor: middle; font-size: 12px;" transform="translate(67.69358825683594,12)" y="0" x="0" id="text-entity-Cast-eb108fdd-c5bc-4d98-a865-0b39fd06d8e9" class="er entityLabel">Cast</text><rect height="22" width="54.095550537109375" y="24" x="0" class="er attributeBoxOdd"/><text style="dominant-baseline: middle; font-size: 10.2px;" transform="translate(5,35)" y="0" x="0" id="text-entity-Cast-eb108fdd-c5bc-4d98-a865-0b39fd06d8e9-attr-1-type" class="er entityLabel">String</text><rect height="22" width="58.60394287109375" y="24" x="54.095550537109375" class="er attributeBoxOdd"/><text style="dominant-baseline: middle; font-size: 10.2px;" transform="translate(59.095550537109375,35)" y="0" x="0" id="text-entity-Cast-eb108fdd-c5bc-4d98-a865-0b39fd06d8e9-attr-1-name" class="er entityLabel">id</text><rect height="22" width="22.68768310546875" y="24" x="112.69949340820312" class="er attributeBoxOdd"/><text style="dominant-baseline: middle; font-size: 10.2px;" transform="translate(117.69949340820312,35)" y="0" x="0" id="text-entity-Cast-eb108fdd-c5bc-4d98-a865-0b39fd06d8e9-attr-1-key" class="er entityLabel">PK</text><rect height="22" width="54.095550537109375" y="46" x="0" class="er attributeBoxEven"/><text style="dominant-baseline: middle; font-size: 10.2px;" transform="translate(5,57)" y="0" x="0" id="text-entity-Cast-eb108fdd-c5bc-4d98-a865-0b39fd06d8e9-attr-2-type" class="er entityLabel">String</text><rect height="22" width="58.60394287109375" y="46" x="54.095550537109375" class="er attributeBoxEven"/><text style="dominant-baseline: middle; font-size: 10.2px;" transform="translate(59.095550537109375,57)" y="0" x="0" id="text-entity-Cast-eb108fdd-c5bc-4d98-a865-0b39fd06d8e9-attr-2-name" class="er entityLabel">character</text><rect height="22" width="22.68768310546875" y="46" x="112.69949340820312" class="er attributeBoxEven"/><text style="dominant-baseline: middle; font-size: 10.2px;" transform="translate(117.69949340820312,57)" y="0" x="0" id="text-entity-Cast-eb108fdd-c5bc-4d98-a865-0b39fd06d8e9-attr-2-key" class="er entityLabel"/><rect height="22" width="54.095550537109375" y="68" x="0" class="er attributeBoxOdd"/><text style="dominant-baseline: middle; font-size: 10.2px;" transform="translate(5,79)" y="0" x="0" id="text-entity-Cast-eb108fdd-c5bc-4d98-a865-0b39fd06d8e9-attr-3-type" class="er entityLabel">DateTime</text><rect height="22" width="58.60394287109375" y="68" x="54.095550537109375" class="er attributeBoxOdd"/><text style="dominant-baseline: middle; font-size: 10.2px;" transform="translate(59.095550537109375,79)" y="0" x="0" id="text-entity-Cast-eb108fdd-c5bc-4d98-a865-0b39fd06d8e9-attr-3-name" class="er entityLabel">createdAt</text><rect height="22" width="22.68768310546875" y="68" x="112.69949340820312" class="er attributeBoxOdd"/><text style="dominant-baseline: middle; font-size: 10.2px;" transform="translate(117.69949340820312,79)" y="0" x="0" id="text-entity-Cast-eb108fdd-c5bc-4d98-a865-0b39fd06d8e9-attr-3-key" class="er entityLabel"/><rect height="22" width="54.095550537109375" y="90" x="0" class="er attributeBoxEven"/><text style="dominant-baseline: middle; font-size: 10.2px;" transform="translate(5,101)" y="0" x="0" id="text-entity-Cast-eb108fdd-c5bc-4d98-a865-0b39fd06d8e9-attr-4-type" class="er entityLabel">DateTime</text><rect height="22" width="58.60394287109375" y="90" x="54.095550537109375" class="er attributeBoxEven"/><text style="dominant-baseline: middle; font-size: 10.2px;" transform="translate(59.095550537109375,101)" y="0" x="0" id="text-entity-Cast-eb108fdd-c5bc-4d98-a865-0b39fd06d8e9-attr-4-name" class="er entityLabel">updatedAt</text><rect height="22" width="22.68768310546875" y="90" x="112.69949340820312" class="er attributeBoxEven"/><text style="dominant-baseline: middle; font-size: 10.2px;" transform="translate(117.69949340820312,101)" y="0" x="0" id="text-entity-Cast-eb108fdd-c5bc-4d98-a865-0b39fd06d8e9-attr-4-key" class="er entityLabel"/></g><g transform="translate(333.45735931396484,20 )" id="entity-Crew-1c200e45-6f18-485f-8d04-971cad65335e"><rect height="112" width="135.38717651367188" y="0" x="0" class="er entityBox"/><text style="dominant-baseline: middle; text-anchor: middle; font-size: 12px;" transform="translate(67.69358825683594,12)" y="0" x="0" id="text-entity-Crew-1c200e45-6f18-485f-8d04-971cad65335e" class="er entityLabel">Crew</text><rect height="22" width="54.095550537109375" y="24" x="0" class="er attributeBoxOdd"/><text style="dominant-baseline: middle; font-size: 10.2px;" transform="translate(5,35)" y="0" x="0" id="text-entity-Crew-1c200e45-6f18-485f-8d04-971cad65335e-attr-1-type" class="er entityLabel">String</text><rect height="22" width="58.60394287109375" y="24" x="54.095550537109375" class="er attributeBoxOdd"/><text style="dominant-baseline: middle; font-size: 10.2px;" transform="translate(59.095550537109375,35)" y="0" x="0" id="text-entity-Crew-1c200e45-6f18-485f-8d04-971cad65335e-attr-1-name" class="er entityLabel">id</text><rect height="22" width="22.68768310546875" y="24" x="112.69949340820312" class="er attributeBoxOdd"/><text style="dominant-baseline: middle; font-size: 10.2px;" transform="translate(117.69949340820312,35)" y="0" x="0" id="text-entity-Crew-1c200e45-6f18-485f-8d04-971cad65335e-attr-1-key" class="er entityLabel">PK</text><rect height="22" width="54.095550537109375" y="46" x="0" class="er attributeBoxEven"/><text style="dominant-baseline: middle; font-size: 10.2px;" transform="translate(5,57)" y="0" x="0" id="text-entity-Crew-1c200e45-6f18-485f-8d04-971cad65335e-attr-2-type" class="er entityLabel">String</text><rect height="22" width="58.60394287109375" y="46" x="54.095550537109375" class="er attributeBoxEven"/><text style="dominant-baseline: middle; font-size: 10.2px;" transform="translate(59.095550537109375,57)" y="0" x="0" id="text-entity-Crew-1c200e45-6f18-485f-8d04-971cad65335e-attr-2-name" class="er entityLabel">job</text><rect height="22" width="22.68768310546875" y="46" x="112.69949340820312" class="er attributeBoxEven"/><text style="dominant-baseline: middle; font-size: 10.2px;" transform="translate(117.69949340820312,57)" y="0" x="0" id="text-entity-Crew-1c200e45-6f18-485f-8d04-971cad65335e-attr-2-key" class="er entityLabel"/><rect height="22" width="54.095550537109375" y="68" x="0" class="er attributeBoxOdd"/><text style="dominant-baseline: middle; font-size: 10.2px;" transform="translate(5,79)" y="0" x="0" id="text-entity-Crew-1c200e45-6f18-485f-8d04-971cad65335e-attr-3-type" class="er entityLabel">DateTime</text><rect height="22" width="58.60394287109375" y="68" x="54.095550537109375" class="er attributeBoxOdd"/><text style="dominant-baseline: middle; font-size: 10.2px;" transform="translate(59.095550537109375,79)" y="0" x="0" id="text-entity-Crew-1c200e45-6f18-485f-8d04-971cad65335e-attr-3-name" class="er entityLabel">createdAt</text><rect height="22" width="22.68768310546875" y="68" x="112.69949340820312" class="er attributeBoxOdd"/><text style="dominant-baseline: middle; font-size: 10.2px;" transform="translate(117.69949340820312,79)" y="0" x="0" id="text-entity-Crew-1c200e45-6f18-485f-8d04-971cad65335e-attr-3-key" class="er entityLabel"/><rect height="22" width="54.095550537109375" y="90" x="0" class="er attributeBoxEven"/><text style="dominant-baseline: middle; font-size: 10.2px;" transform="translate(5,101)" y="0" x="0" id="text-entity-Crew-1c200e45-6f18-485f-8d04-971cad65335e-attr-4-type" class="er entityLabel">DateTime</text><rect height="22" width="58.60394287109375" y="90" x="54.095550537109375" class="er attributeBoxEven"/><text style="dominant-baseline: middle; font-size: 10.2px;" transform="translate(59.095550537109375,101)" y="0" x="0" id="text-entity-Crew-1c200e45-6f18-485f-8d04-971cad65335e-attr-4-name" class="er entityLabel">updatedAt</text><rect height="22" width="22.68768310546875" y="90" x="112.69949340820312" class="er attributeBoxEven"/><text style="dominant-baseline: middle; font-size: 10.2px;" transform="translate(117.69949340820312,101)" y="0" x="0" id="text-entity-Crew-1c200e45-6f18-485f-8d04-971cad65335e-attr-4-key" class="er entityLabel"/></g><rect height="14" width="32.69921875" y="160.58944702148438" x="183.419189453125" class="er relationshipLabelBox"/><text style="text-anchor: middle; dominant-baseline: middle; font-size: 12px;" y="167.58944702148438" x="199.768798828125" id="rel1" class="er relationshipLabel">movie</text><rect height="14" width="30.7890625" y="207.965576171875" x="72.62908935546875" class="er relationshipLabelBox"/><text style="text-anchor: middle; dominant-baseline: middle; font-size: 12px;" y="214.965576171875" x="88.02362060546875" id="rel2" class="er relationshipLabel">genre</text><rect height="14" width="36.19140625" y="222.0006866455078" x="705.5568237304688" class="er relationshipLabelBox"/><text style="text-anchor: middle; dominant-baseline: middle; font-size: 12px;" y="229.0006866455078" x="723.6525268554688" id="rel3" class="er relationshipLabel">person</text><rect height="14" width="32.69921875" y="221.8530731201172" x="546.5752563476562" class="er relationshipLabelBox"/><text style="text-anchor: middle; dominant-baseline: middle; font-size: 12px;" y="228.8530731201172" x="562.9248657226562" id="rel4" class="er relationshipLabel">movie</text><rect height="14" width="36.19140625" y="210.76751708984375" x="533.7789306640625" class="er relationshipLabelBox"/><text style="text-anchor: middle; dominant-baseline: middle; font-size: 12px;" y="217.76751708984375" x="551.8746337890625" id="rel5" class="er relationshipLabel">person</text><rect height="14" width="32.69921875" y="173.27667236328125" x="339.15252685546875" class="er relationshipLabelBox"/><text style="text-anchor: middle; dominant-baseline: middle; font-size: 12px;" y="180.27667236328125" x="355.50213623046875" id="rel6" class="er relationshipLabel">movie</text></svg>